<svg width="31" height="30" viewBox="0 0 31 30" fill="none" xmlns="http://www.w3.org/2000/svg">
<circle cx="15.5" cy="15" r="15" fill="#8C9099"/>
<g clip-path="url(#clip0_201_5881)">
<path d="M15.5 17.1334C16.6782 17.1334 17.6334 16.1782 17.6334 15C17.6334 13.8218 16.6782 12.8667 15.5 12.8667C14.3218 12.8667 13.3667 13.8218 13.3667 15C13.3667 16.1782 14.3218 17.1334 15.5 17.1334Z" fill="white"/>
<path d="M13.5002 8.33325L12.2802 9.66659H10.1668C9.4335 9.66659 8.8335 10.2666 8.8335 10.9999V18.9999C8.8335 19.7333 9.4335 20.3333 10.1668 20.3333H20.8335C21.5668 20.3333 22.1668 19.7333 22.1668 18.9999V10.9999C22.1668 10.2666 21.5668 9.66659 20.8335 9.66659H18.7202L17.5002 8.33325H13.5002ZM15.5002 18.3333C13.6602 18.3333 12.1668 16.8399 12.1668 14.9999C12.1668 13.1599 13.6602 11.6666 15.5002 11.6666C17.3402 11.6666 18.8335 13.1599 18.8335 14.9999C18.8335 16.8399 17.3402 18.3333 15.5002 18.3333Z" fill="white"/>
</g>
<defs>
<clipPath id="clip0_201_5881">
<rect width="16" height="16" fill="white" transform="translate(7.5 7)"/>
</clipPath>
</defs>
</svg>
