<svg width="21" height="18" viewBox="0 0 21 18" fill="none" xmlns="http://www.w3.org/2000/svg">
<path d="M10.489 0.22025C4.81677 0.22025 0.217773 3.278 0.217773 7.04975C0.217773 9.2075 1.72752 11.1298 4.07802 12.3807C3.74352 13.4908 3.07602 14.7185 1.78602 15.8053C1.78602 15.8053 4.79802 15.6057 6.92502 13.448C7.04727 13.478 7.17402 13.5005 7.29777 13.5275C7.17723 13.1793 7.11465 12.8137 7.11252 12.4452C7.11252 9.9005 9.94452 7.90775 13.5625 7.90775C16.1598 7.90775 18.346 8.93975 19.375 10.4622C20.251 9.45725 20.7603 8.2925 20.7603 7.0475C20.7603 3.2765 16.1613 0.21875 10.489 0.21875V0.22025ZM19.2603 12.4467C19.2603 10.3542 16.7103 8.657 13.5603 8.657C10.414 8.657 7.86177 10.355 7.86177 12.4475C7.86177 14.54 10.414 16.2372 13.5618 16.2372C14.2578 16.2372 14.9215 16.1502 15.5388 15.9972C16.7185 17.1957 18.3888 17.306 18.3888 17.306C17.674 16.703 17.3043 16.0212 17.1183 15.4055C18.4218 14.7117 19.2603 13.6452 19.2603 12.4475V12.4467Z" fill="white"/>
</svg>
