<svg width="40" height="40" viewBox="0 0 40 40" fill="none" xmlns="http://www.w3.org/2000/svg">
<path d="M12.0586 14.7059H13.8233H27.9409" stroke="#ED0006" stroke-width="1.76471" stroke-linecap="round" stroke-linejoin="round"/>
<path d="M16.4674 14.7059V12.9412C16.4674 12.4731 16.6533 12.0243 16.9842 11.6933C17.3152 11.3624 17.764 11.1765 18.2321 11.1765H21.7615C22.2295 11.1765 22.6784 11.3624 23.0093 11.6933C23.3403 12.0243 23.5262 12.4731 23.5262 12.9412V14.7059M26.1733 14.7059V27.0588C26.1733 27.5269 25.9873 27.9757 25.6564 28.3067C25.3254 28.6376 24.8766 28.8235 24.4085 28.8235H15.585C15.117 28.8235 14.6681 28.6376 14.3372 28.3067C14.0062 27.9757 13.8203 27.5269 13.8203 27.0588V14.7059H26.1733Z" stroke="#ED0006" stroke-width="1.76471" stroke-linecap="round" stroke-linejoin="round"/>
<path d="M21.7617 19.1176V24.4118" stroke="#ED0006" stroke-width="1.76471" stroke-linecap="round" stroke-linejoin="round"/>
<path d="M18.2344 19.1176V24.4118" stroke="#ED0006" stroke-width="1.76471" stroke-linecap="round" stroke-linejoin="round"/>
</svg>
