<svg width="35" height="35" viewBox="0 0 35 35" fill="none" xmlns="http://www.w3.org/2000/svg">
<path d="M26.307 19.7604C25.6945 20.3583 25.3445 21.2187 25.432 22.1375C25.5633 23.7125 27.007 24.8646 28.582 24.8646H31.3529V26.6C31.3529 29.6187 28.8883 32.0833 25.8695 32.0833H9.12786C6.10911 32.0833 3.64453 29.6187 3.64453 26.6V16.7854C3.64453 13.7667 6.10911 11.3021 9.12786 11.3021H25.8695C28.8883 11.3021 31.3529 13.7667 31.3529 16.7854V18.8854H28.407C27.5904 18.8854 26.8466 19.2062 26.307 19.7604Z" stroke="#212121" stroke-width="1.5" stroke-linecap="round" stroke-linejoin="round"/>
<path d="M3.64453 18.0979V11.4334C3.64453 9.69798 4.70911 8.15208 6.32786 7.53958L17.907 3.16458C19.7154 2.47916 21.6549 3.82087 21.6549 5.76046V11.3021" stroke="#212121" stroke-width="1.5" stroke-linecap="round" stroke-linejoin="round"/>
<path d="M32.8979 20.3732V23.3774C32.8979 24.1795 32.2563 24.8357 31.4396 24.8648H28.5813C27.0063 24.8648 25.5625 23.7128 25.4313 22.1378C25.3438 21.219 25.6938 20.3586 26.3063 19.7607C26.8459 19.2065 27.5896 18.8857 28.4063 18.8857H31.4396C32.2563 18.9149 32.8979 19.5711 32.8979 20.3732Z" stroke="#212121" stroke-width="1.5" stroke-linecap="round" stroke-linejoin="round"/>
<path d="M10.207 17.5H20.4154" stroke="#212121" stroke-width="1.5" stroke-linecap="round" stroke-linejoin="round"/>
</svg>
