<svg width="34" height="34" viewBox="0 0 34 34" fill="none" xmlns="http://www.w3.org/2000/svg">
<path opacity="0.1" fill-rule="evenodd" clip-rule="evenodd" d="M0.314331 16.5285C0.314331 7.40006 7.71439 0 16.8428 0C25.9713 0 33.3713 7.40006 33.3713 16.5285C33.3713 25.6569 25.9713 33.057 16.8428 33.057C7.71439 33.057 0.314331 25.6569 0.314331 16.5285Z" fill="#797171"/>
<path d="M21.7792 17.6875L22.3124 14.2489H18.9783V12.0176C18.9783 11.0768 19.4441 10.1599 20.9373 10.1599H22.453V7.2323C22.453 7.2323 21.0776 7 19.7624 7C17.0167 7 15.2219 8.64691 15.2219 11.6283V14.2489H12.1698V17.6875H15.2219V26H18.9783V17.6875H21.7792Z" fill="white" fill-opacity="0.8"/>
</svg>
