<svg width="24" height="25" viewBox="0 0 24 25" fill="none" xmlns="http://www.w3.org/2000/svg">
<path d="M21.9975 17.4201V20.4201C21.9986 20.6986 21.9416 20.9743 21.83 21.2294C21.7184 21.4846 21.5548 21.7137 21.3496 21.902C21.1443 22.0902 20.9021 22.2336 20.6382 22.3228C20.3744 22.412 20.0949 22.4452 19.8175 22.4201C16.7403 22.0857 13.7845 21.0342 11.1875 19.3501C8.77132 17.8148 6.72283 15.7663 5.18749 13.3501C3.49747 10.7413 2.44573 7.77109 2.11749 4.6801C2.0925 4.40356 2.12537 4.12486 2.21399 3.86172C2.30262 3.59859 2.44506 3.35679 2.63226 3.15172C2.81945 2.94665 3.0473 2.78281 3.30128 2.67062C3.55527 2.55843 3.82983 2.50036 4.10749 2.5001H7.10749C7.5928 2.49532 8.06328 2.66718 8.43125 2.98363C8.79922 3.30008 9.03957 3.73954 9.10749 4.2201C9.23411 5.18016 9.46894 6.12282 9.80749 7.0301C9.94204 7.38802 9.97115 7.77701 9.8914 8.15098C9.81164 8.52494 9.62635 8.86821 9.35749 9.1401L8.08749 10.4101C9.51105 12.9136 11.5839 14.9865 14.0875 16.4101L15.3575 15.1401C15.6294 14.8712 15.9726 14.6859 16.3466 14.6062C16.7206 14.5264 17.1096 14.5556 17.4675 14.6901C18.3748 15.0286 19.3174 15.2635 20.2775 15.3901C20.7633 15.4586 21.2069 15.7033 21.524 16.0776C21.8412 16.4519 22.0097 16.9297 21.9975 17.4201Z" stroke="#494F59" stroke-width="1.5" stroke-linecap="round" stroke-linejoin="round"/>
</svg>
