<svg width="35" height="25" viewBox="0 0 35 25" fill="none" xmlns="http://www.w3.org/2000/svg">
<rect x="0.5" y="1" width="34" height="23" rx="3.5" fill="white" stroke="#D9D9D9"/>
<path fill-rule="evenodd" clip-rule="evenodd" d="M16.5296 16.2581V13.2371H18.0888C18.7277 13.2371 19.267 13.0231 19.7066 12.6008L19.8121 12.4938C20.6152 11.6196 20.5624 10.2578 19.7066 9.44905C19.2787 9.02088 18.6926 8.78896 18.0888 8.80085H15.5859V16.2581H16.5296ZM16.5298 12.3213V9.71666H18.1126C18.4527 9.71666 18.7751 9.84749 19.0155 10.0854C19.5255 10.5849 19.5372 11.4174 19.0448 11.9348C18.8044 12.1905 18.4644 12.3332 18.1126 12.3213H16.5298ZM24.2142 11.5542C23.8097 11.1796 23.2587 10.9893 22.5612 10.9893C21.6644 10.9893 20.9903 11.3223 20.5448 11.9824L21.3772 12.5116C21.682 12.0597 22.0982 11.8337 22.6257 11.8337C22.9598 11.8337 23.2822 11.9586 23.5342 12.1846C23.7804 12.3987 23.9211 12.7079 23.9211 13.035V13.255C23.5577 13.0528 23.1005 12.9458 22.5378 12.9458C21.8813 12.9458 21.3537 13.1004 20.961 13.4155C20.5683 13.7307 20.369 14.147 20.369 14.6763C20.3573 15.158 20.5624 15.6159 20.9259 15.9251C21.2951 16.2581 21.7641 16.4246 22.315 16.4246C22.9657 16.4246 23.4815 16.1332 23.8742 15.5504H23.9152V16.2581H24.8179V13.1123C24.8179 12.4522 24.6186 11.9289 24.2142 11.5542ZM21.6529 15.3185C21.4594 15.1758 21.3421 14.9438 21.3421 14.6941C21.3421 14.4146 21.4711 14.1827 21.7232 13.9983C21.9812 13.814 22.3036 13.7188 22.6847 13.7188C23.2123 13.7129 23.6227 13.8318 23.9158 14.0697C23.9158 14.474 23.7575 14.8249 23.4468 15.1222C23.1654 15.4077 22.7843 15.5682 22.3857 15.5682C22.1219 15.5742 21.8639 15.485 21.6529 15.3185ZM26.846 18.5L29.9995 11.1558H28.9738L27.5142 14.819H27.4967L26.002 11.1558H24.9762L27.0453 15.931L25.873 18.5H26.846Z" fill="#3C4043"/>
<path d="M13.273 12.583C13.273 12.2916 13.2495 12.0002 13.2027 11.7148H9.22266V13.362H11.5028C11.409 13.8913 11.1042 14.367 10.6587 14.6644V15.7348H12.0186C12.8158 14.9914 13.273 13.8913 13.273 12.583Z" fill="#4285F4"/>
<path d="M9.22211 16.7695C10.3592 16.7695 11.3205 16.3889 12.0181 15.7348L10.6582 14.6643C10.2772 14.926 9.79068 15.0747 9.22211 15.0747C8.12013 15.0747 7.18815 14.3194 6.85404 13.3085H5.45312V14.4146C6.16824 15.8596 7.62776 16.7695 9.22211 16.7695Z" fill="#34A853"/>
<path d="M6.85401 13.3085C6.67814 12.7793 6.67814 12.2024 6.85401 11.6672V10.5671H5.45288C4.84904 11.7743 4.84904 13.2015 5.45288 14.4087L6.85401 13.3085Z" fill="#FBBC04"/>
<path d="M9.22211 9.90102C9.82585 9.88913 10.4061 10.121 10.8399 10.5433L12.0474 9.31824C11.2795 8.59273 10.2713 8.1943 9.22211 8.20619C7.62776 8.20619 6.16824 9.12199 5.45312 10.5671L6.85404 11.6732C7.18815 10.6563 8.12013 9.90102 9.22211 9.90102Z" fill="#EA4335"/>
</svg>
