<svg width="207" height="13" viewBox="0 0 207 13" fill="none" xmlns="http://www.w3.org/2000/svg">
<path d="M75.9041 4.6433C75.7255 6.42941 75.1897 8.39414 73.9394 9.82304C72.6891 11.0733 71.0816 12.145 69.2955 12.5022C68.3429 12.7404 67.3903 12.7999 66.4377 12.6808C65.4851 12.5617 64.592 12.2045 63.7585 11.6092C62.925 11.0138 62.2701 10.2993 61.7938 9.46581C61.3175 8.63229 61.0198 7.73923 60.9008 6.78663V6.42941V6.07218C60.9008 5.83403 60.9008 5.5959 60.9008 5.35775C61.0198 4.88145 61.1389 4.40515 61.258 3.92885C61.7938 3.03579 62.3296 2.32134 63.2227 1.60689C63.699 1.36874 64.1753 1.19014 64.6516 1.07107C64.8897 0.951991 65.1279 0.892457 65.366 0.892457C65.6042 0.892457 65.8423 0.892457 66.0805 0.892457C67.1522 0.713845 68.0452 1.24968 68.9383 1.78552C69.6527 2.49996 70.1885 3.57163 70.3672 4.6433C70.3672 5.1196 70.2481 5.59589 70.0099 6.07218C69.8909 6.66755 69.5932 7.14386 69.1169 7.50108C68.7597 7.8583 68.2833 8.09646 67.688 8.21553C67.1521 8.21553 66.6163 8.21553 66.0805 8.03692C65.1874 7.6797 64.473 6.60803 64.6516 5.53636C64.6516 5.35774 64.8302 5.35775 65.0088 5.35775C65.1279 5.35775 65.1874 5.41728 65.1874 5.53636C65.1874 6.42941 65.7233 6.96525 66.4377 7.14386C66.7949 7.32247 67.1522 7.14386 67.5094 7.14386C67.8666 7.02479 68.1643 6.84617 68.4024 6.60802C69.4741 5.71496 69.1169 3.75024 68.0452 2.85718C67.5094 2.32135 66.7949 1.96412 66.0805 1.96412C65.8423 1.96412 65.6637 1.96412 65.5446 1.96412C65.3065 2.0832 65.0684 2.14273 64.8302 2.14273C64.473 2.26181 64.1753 2.44042 63.9371 2.67857C63.2227 3.0358 62.6869 3.75024 62.3296 4.46469C61.9724 5.17914 61.9724 5.89357 61.9724 6.78663C62.0915 7.50108 62.3296 8.21553 62.6869 8.92998C63.1632 9.64443 63.699 10.2398 64.2944 10.7161C65.0088 11.1924 65.7828 11.5496 66.6163 11.7878C67.3308 11.9664 68.2238 11.7878 69.1169 11.7878C70.7244 11.4305 72.3319 10.5375 73.4036 9.2872C74.6539 8.03692 75.3683 6.42941 75.5469 4.6433C75.5469 4.52422 75.6064 4.46469 75.7255 4.46469C75.8446 4.46469 75.9041 4.52422 75.9041 4.6433Z" fill="#F8560D"/>
<path d="M89.4786 8.21613C89.3 6.43002 88.5855 4.82251 87.3352 3.57223C86.2635 2.32195 84.656 1.6075 83.0485 1.25028C82.3341 1.25028 81.441 1.07166 80.7266 1.25028C79.8931 1.36935 79.1191 1.66704 78.4046 2.14333C77.8093 2.61963 77.2734 3.215 76.7971 3.92945C76.4399 4.6439 76.2018 5.35834 76.0827 6.07278C75.9041 6.96584 76.0827 7.68029 76.4399 8.39474C76.6185 9.10919 77.1544 9.82363 77.8688 10.1809C78.226 10.419 78.5832 10.5976 78.9405 10.7167C79.0595 10.7167 79.2382 10.7762 79.4763 10.8953C79.7145 10.8953 79.8931 10.8953 80.0122 10.8953C80.9052 10.8953 81.6196 10.7167 82.1555 10.1809C83.4058 9.2878 83.763 7.14445 82.5127 6.07278C82.2746 5.83464 81.9173 5.65603 81.441 5.53696C81.0838 5.41788 80.7266 5.41788 80.3694 5.53696C79.6549 5.71557 79.1191 6.43002 79.1191 7.32307C79.1191 7.50168 79.1191 7.50168 78.9405 7.50168C78.8214 7.50168 78.7023 7.44215 78.5833 7.32307C78.5833 6.2514 79.1191 5.35834 80.1907 5.00112C81.2624 4.64389 82.3341 4.82251 83.0485 5.53696C83.4058 5.89418 83.7035 6.31094 83.9416 6.78723C84.1797 7.26353 84.2393 7.73983 84.1202 8.21613C84.1202 9.2878 83.5844 10.1809 82.8699 10.8953C82.1555 11.6098 81.0838 11.967 80.0122 11.967C79.774 11.967 79.5358 11.967 79.2977 11.967C79.0595 11.967 78.8214 11.9074 78.5833 11.7884C78.107 11.6693 77.6307 11.4907 77.1544 11.2525C76.4399 10.7167 75.7255 9.82364 75.3682 8.93058C75.1301 8.45428 74.9515 7.97798 74.8324 7.50168C74.8324 7.26353 74.8324 7.02538 74.8324 6.78723V6.43002V6.07278C74.9515 5.00111 75.2492 4.04852 75.7255 3.215C76.2018 2.38148 76.8567 1.66704 77.6902 1.07167C78.5237 0.595369 79.4168 0.238149 80.3694 0C80.6075 0 80.8457 0 81.0838 0H81.7983C82.0364 0 82.2746 0 82.5127 0H82.8699L83.2272 0.178609C85.1919 0.535832 86.7994 1.6075 88.0497 3.03639C88.1687 3.27454 88.2878 3.45316 88.4069 3.57223L88.7641 4.28667L89.1213 4.82251C89.2404 5.06066 89.3595 5.29881 89.4786 5.53696C89.7167 6.37048 89.8358 7.26354 89.8358 8.21613C89.8358 8.33521 89.7762 8.39474 89.6572 8.39474C89.5381 8.39474 89.4786 8.33521 89.4786 8.21613V8.21613Z" fill="#F8560D"/>
<path d="M103.945 4.6433C103.945 6.42941 103.231 8.39414 102.159 9.82304C100.909 11.0733 99.3012 12.145 97.3365 12.5022C96.503 12.7404 95.6099 12.7999 94.6573 12.6808C93.7047 12.5617 92.8117 12.2045 91.9782 11.6092C91.1446 11.0138 90.4897 10.2993 90.0134 9.46581C89.4181 8.63229 89.1204 7.73923 89.1204 6.78663L88.9418 6.42941V6.07218C88.9418 5.83403 89.0013 5.5959 89.1204 5.35775C89.1204 4.88145 89.2395 4.40515 89.4776 3.92885C89.8348 3.03579 90.5493 2.32134 91.2637 1.60689C91.74 1.36874 92.2163 1.19014 92.6926 1.07107C92.9307 0.951991 93.1689 0.892457 93.4071 0.892457C93.6452 0.892457 93.8833 0.892457 94.1215 0.892457C95.1932 0.713845 96.2648 1.24968 96.9793 1.78552C97.8724 2.49996 98.4082 3.57163 98.4082 4.6433C98.4082 5.1196 98.3486 5.59589 98.2296 6.07218C97.9914 6.66755 97.6937 7.14386 97.3365 7.50108C96.8602 7.8583 96.3839 8.09646 95.9076 8.21553C95.3718 8.21553 94.836 8.21553 94.3001 8.03692C93.2285 7.6797 92.6926 6.60803 92.8712 5.53636C92.8712 5.35774 92.8712 5.35775 93.0498 5.35775C93.1689 5.35775 93.2284 5.41728 93.2284 5.53636C93.2284 6.42941 93.9429 6.96525 94.4787 7.14386C94.8359 7.32247 95.1932 7.14386 95.5504 7.14386C95.9076 7.02479 96.2053 6.84617 96.4435 6.60802C97.5151 5.71496 97.3365 3.75024 96.2648 2.85718C95.729 2.32135 95.0146 1.96412 94.1215 1.96412C94.0024 1.96412 93.8238 1.96412 93.5857 1.96412C93.3475 2.0832 93.1689 2.14273 93.0498 2.14273C92.6926 2.26181 92.3354 2.44042 91.9782 2.67857C91.2637 3.0358 90.7279 3.75024 90.5493 4.46469C90.192 5.17914 90.0134 5.89357 90.192 6.78663C90.192 7.50108 90.4302 8.21553 90.9065 8.92998C91.2637 9.64443 91.7996 10.2398 92.514 10.7161C93.2285 11.1924 93.9429 11.5496 94.6573 11.7878C95.5504 11.9664 96.4434 11.7878 97.1579 11.7878C98.944 11.4305 100.373 10.5375 101.623 9.2872C102.695 8.03692 103.409 6.42941 103.588 4.6433C103.588 4.52422 103.647 4.46469 103.767 4.46469C103.886 4.46469 103.945 4.52422 103.945 4.6433Z" fill="#F8560D"/>
<path d="M117.7 8.21613C117.343 6.43002 116.628 4.82251 115.557 3.57223C114.306 2.32195 112.878 1.6075 111.27 1.25028C110.377 1.25028 109.484 1.07166 108.77 1.25028C107.936 1.36935 107.222 1.66704 106.626 2.14333C105.912 2.61963 105.376 3.215 105.019 3.92945C104.542 4.6439 104.245 5.35834 104.126 6.07278C104.126 6.96584 104.126 7.68029 104.483 8.39474C104.84 9.10919 105.376 9.82363 105.912 10.1809C106.269 10.419 106.626 10.5976 106.983 10.7167C107.222 10.7167 107.4 10.7762 107.519 10.8953C107.757 10.8953 107.996 10.8953 108.234 10.8953C108.948 10.8953 109.663 10.7167 110.377 10.1809C111.449 9.2878 111.806 7.14445 110.556 6.07278C110.317 5.83464 110.02 5.65603 109.663 5.53696C109.305 5.41788 108.948 5.41788 108.591 5.53696C107.876 5.71557 107.341 6.43002 107.341 7.32307C107.341 7.50168 107.162 7.50168 106.983 7.50168C106.864 7.50168 106.805 7.44215 106.805 7.32307C106.626 6.2514 107.341 5.35834 108.234 5.00112C109.305 4.64389 110.377 4.82251 111.091 5.53696C111.568 5.89418 111.865 6.31094 111.985 6.78723C112.223 7.26353 112.342 7.73983 112.342 8.21613C112.163 9.2878 111.627 10.1809 110.913 10.8953C110.198 11.6098 109.127 11.967 108.234 11.967C107.996 11.967 107.757 11.967 107.519 11.967C107.281 11.967 107.043 11.9074 106.805 11.7884C106.209 11.6693 105.733 11.4907 105.376 11.2525C104.483 10.7167 103.768 9.82364 103.411 8.93058C103.173 8.45428 103.054 7.97798 103.054 7.50168C102.935 7.26353 102.875 7.02538 102.875 6.78723V6.43002L103.054 6.07278C103.054 5.00111 103.352 4.04852 103.947 3.215C104.423 2.38148 105.078 1.66704 105.912 1.07167C106.745 0.595369 107.638 0.238149 108.591 0C108.829 0 109.067 0 109.305 0H110.02C110.258 0 110.496 0 110.734 0H111.091L111.449 0.178609C113.235 0.535832 115.021 1.6075 116.093 3.03639C116.331 3.27454 116.509 3.45316 116.628 3.57223L116.986 4.28667L117.343 4.82251C117.343 5.06066 117.402 5.29881 117.522 5.53696C117.879 6.37048 118.057 7.26354 118.057 8.21613C117.938 8.33521 117.879 8.39474 117.879 8.39474C117.76 8.39474 117.7 8.33521 117.7 8.21613Z" fill="#F8560D"/>
<path d="M131.808 4.6433C131.808 6.42941 131.094 8.39414 129.844 9.82304C128.772 11.0733 126.986 12.145 125.2 12.5022C124.247 12.7404 123.295 12.7999 122.342 12.6808C121.389 12.5617 120.496 12.2045 119.663 11.6092C118.948 11.0138 118.293 10.2993 117.698 9.46581C117.222 8.63229 116.924 7.73923 116.805 6.78663V6.42941V6.07218C116.805 5.83403 116.805 5.5959 116.805 5.35775C116.924 4.88145 117.043 4.40515 117.162 3.92885C117.698 3.03579 118.234 2.32134 119.127 1.60689C119.603 1.36874 120.08 1.19014 120.556 1.07107C120.794 0.951991 121.032 0.892457 121.27 0.892457C121.508 0.892457 121.747 0.892457 121.985 0.892457C123.056 0.713845 124.128 1.24968 124.843 1.78552C125.557 2.49996 126.093 3.57163 126.271 4.6433C126.271 5.1196 126.212 5.59589 126.093 6.07218C125.855 6.66755 125.497 7.14386 125.021 7.50108C124.664 7.8583 124.188 8.09646 123.592 8.21553C123.056 8.21553 122.521 8.21553 121.985 8.03692C121.092 7.6797 120.377 6.60803 120.556 5.53636C120.556 5.35774 120.735 5.35775 120.913 5.35775C121.032 5.35775 121.092 5.41728 121.092 5.53636C121.092 6.42941 121.628 6.96525 122.342 7.14386C122.699 7.32247 123.056 7.14386 123.414 7.14386C123.771 7.02479 124.069 6.84617 124.307 6.60802C125.378 5.71496 125.2 3.75024 123.95 2.85718C123.414 2.32135 122.699 1.96412 121.985 1.96412C121.747 1.96412 121.568 1.96412 121.449 1.96412C121.211 2.0832 121.032 2.14273 120.913 2.14273C120.437 2.26181 120.08 2.44042 119.841 2.67857C119.127 3.0358 118.591 3.75024 118.234 4.46469C117.877 5.17914 117.877 5.89357 117.877 6.78663C117.996 7.50108 118.234 8.21553 118.591 8.92998C119.067 9.64443 119.663 10.2398 120.377 10.7161C120.973 11.1924 121.687 11.5496 122.521 11.7878C123.414 11.9664 124.128 11.7878 125.021 11.7878C126.629 11.4305 128.236 10.5375 129.308 9.2872C130.558 8.03692 131.273 6.42941 131.451 4.6433C131.451 4.52422 131.511 4.46469 131.63 4.46469C131.749 4.46469 131.808 4.52422 131.808 4.6433V4.6433Z" fill="#F8560D"/>
<path d="M145.385 8.21613C145.206 6.43002 144.492 4.82251 143.241 3.57223C142.17 2.32195 140.562 1.6075 138.955 1.25028C138.24 1.25028 137.347 1.07166 136.633 1.25028C135.799 1.36935 135.025 1.66704 134.311 2.14333C133.716 2.61963 133.18 3.215 132.703 3.92945C132.346 4.6439 132.108 5.35834 131.989 6.07278C131.989 6.96584 131.989 7.68029 132.346 8.39474C132.703 9.10919 133.061 9.82363 133.775 10.1809C134.132 10.419 134.489 10.5976 134.847 10.7167C135.085 10.7167 135.263 10.7762 135.383 10.8953C135.621 10.8953 135.799 10.8953 135.918 10.8953C136.811 10.8953 137.526 10.7167 138.062 10.1809C139.312 9.2878 139.669 7.14445 138.419 6.07278C138.181 5.83464 137.883 5.65603 137.526 5.53696C137.05 5.41788 136.633 5.41788 136.276 5.53696C135.561 5.71557 135.025 6.43002 135.025 7.32307C135.025 7.50168 135.025 7.50168 134.847 7.50168C134.728 7.50168 134.668 7.44215 134.668 7.32307C134.489 6.2514 135.204 5.35834 136.097 5.00112C137.169 4.64389 138.24 4.82251 138.955 5.53696C139.312 5.89418 139.61 6.31094 139.848 6.78723C140.086 7.26353 140.146 7.73983 140.026 8.21613C140.026 9.2878 139.491 10.1809 138.776 10.8953C138.062 11.6098 136.99 11.967 135.918 11.967C135.68 11.967 135.442 11.967 135.204 11.967C134.966 11.967 134.728 11.9074 134.49 11.7884C134.013 11.6693 133.596 11.4907 133.239 11.2525C132.346 10.7167 131.632 9.82364 131.274 8.93058C131.036 8.45428 130.858 7.97798 130.739 7.50168C130.739 7.26353 130.739 7.02538 130.739 6.78723V6.43002V6.07278C130.858 5.00111 131.155 4.04852 131.632 3.215C132.227 2.38148 132.882 1.66704 133.596 1.07167C134.43 0.595369 135.383 0.238149 136.454 0C136.692 0 136.931 0 137.169 0H137.883C138.121 0 138.359 0 138.598 0H138.955L139.312 0.178609C141.098 0.535832 142.706 1.6075 143.956 3.03639C144.075 3.27454 144.194 3.45316 144.313 3.57223L144.849 4.28667L145.028 4.82251C145.147 5.06066 145.266 5.29881 145.385 5.53696C145.623 6.37048 145.742 7.26354 145.742 8.21613C145.742 8.33521 145.682 8.39474 145.563 8.39474C145.563 8.39474 145.504 8.33521 145.385 8.21613V8.21613Z" fill="#F8560D"/>
<path d="M205.756 7.32343L146.099 7.85926C145.385 7.85926 145.028 7.50204 145.028 6.78759C145.028 6.25175 145.385 5.89453 145.921 5.89453C146.04 5.89453 146.099 5.89453 146.099 5.89453L205.756 6.43037C205.934 6.43037 206.113 6.60898 206.113 6.78759C206.113 7.14481 205.934 7.32343 205.756 7.32343Z" fill="#F8560D"/>
<path d="M1.2443 6.43037L61.0792 5.89453C61.615 5.89453 61.9723 6.25175 61.9723 6.78759C61.9723 7.50204 61.615 7.85926 61.0792 7.85926L1.2443 7.32343C1.06569 7.32343 0.887085 7.14481 0.887085 6.78759C0.887085 6.60898 1.06569 6.43037 1.2443 6.43037Z" fill="#F8560D"/>
<path d="M81.2616 7.14374C81.2616 7.85819 80.7257 8.39402 80.0113 8.39402C79.2968 8.39402 78.5824 7.85819 78.5824 7.14374C78.5824 6.4293 79.2968 5.71484 80.0113 5.71484C80.7257 5.71484 81.2616 6.4293 81.2616 7.14374Z" fill="#F8560D"/>
<path d="M95.3729 5.71512C95.3729 6.42957 94.8371 7.14402 94.1226 7.14402C93.4082 7.14402 92.6937 6.42957 92.6937 5.71512C92.6937 5.00067 93.4082 4.46484 94.1226 4.46484C94.8371 4.46484 95.3729 5.00067 95.3729 5.71512Z" fill="#F8560D"/>
<path d="M109.304 7.14482C109.304 7.85927 108.768 8.57371 108.053 8.57371C107.339 8.57371 106.803 7.85927 106.803 7.14482C106.803 6.43037 107.339 5.89453 108.053 5.89453C108.768 5.89453 109.304 6.43037 109.304 7.14482Z" fill="#F8560D"/>
<path d="M123.236 5.71512C123.236 6.42957 122.522 6.9654 121.807 6.9654C121.093 6.9654 120.557 6.42957 120.557 5.71512C120.557 5.00067 121.093 4.46484 121.807 4.46484C122.522 4.46484 123.236 5.00067 123.236 5.71512Z" fill="#F8560D"/>
<path d="M137.168 7.14482C137.168 7.85927 136.632 8.57371 135.918 8.57371C135.203 8.57371 134.489 7.85927 134.489 7.14482C134.489 6.43037 135.203 5.89453 135.918 5.89453C136.632 5.89453 137.168 6.43037 137.168 7.14482Z" fill="#F8560D"/>
<path d="M67.3319 5.71601C67.3319 6.43045 66.6174 6.96628 65.903 6.96628C65.1885 6.96628 64.6527 6.43045 64.6527 5.71601C64.6527 5.00156 65.1885 4.28711 65.903 4.28711C66.6174 4.28711 67.3319 5.00156 67.3319 5.71601Z" fill="#F8560D"/>
</svg>
