<svg width="207" height="14" viewBox="0 0 207 14" fill="none" xmlns="http://www.w3.org/2000/svg">
<path d="M75.9041 5.55931C75.7255 7.34543 75.1897 9.31016 73.9394 10.7391C72.6891 11.9893 71.0816 13.061 69.2955 13.4182C68.3429 13.6564 67.3903 13.7159 66.4377 13.5968C65.4851 13.4778 64.592 13.1205 63.7585 12.5252C62.925 11.9298 62.2701 11.2153 61.7938 10.3818C61.3175 9.5483 61.0198 8.65524 60.9008 7.70265V7.34543V6.9882C60.9008 6.75005 60.9008 6.51191 60.9008 6.27376C61.0198 5.79747 61.1389 5.32116 61.258 4.84486C61.7938 3.95181 62.3296 3.23735 63.2227 2.52291C63.699 2.28476 64.1753 2.10616 64.6516 1.98708C64.8897 1.86801 65.1279 1.80847 65.366 1.80847C65.6042 1.80847 65.8423 1.80847 66.0805 1.80847C67.1522 1.62986 68.0452 2.1657 68.9383 2.70153C69.6527 3.41598 70.1885 4.48764 70.3672 5.55931C70.3672 6.03561 70.2481 6.5119 70.0099 6.9882C69.8909 7.58357 69.5932 8.05987 69.1169 8.4171C68.7597 8.77432 68.2833 9.01247 67.688 9.13155C67.1521 9.13155 66.6163 9.13155 66.0805 8.95294C65.1874 8.59571 64.473 7.52404 64.6516 6.45237C64.6516 6.27376 64.8302 6.27376 65.0088 6.27376C65.1279 6.27376 65.1874 6.3333 65.1874 6.45237C65.1874 7.34543 65.7233 7.88127 66.4377 8.05988C66.7949 8.23849 67.1522 8.05988 67.5094 8.05988C67.8666 7.9408 68.1643 7.76219 68.4024 7.52404C69.4741 6.63098 69.1169 4.66626 68.0452 3.7732C67.5094 3.23736 66.7949 2.88014 66.0805 2.88014C65.8423 2.88014 65.6637 2.88014 65.5446 2.88014C65.3065 2.99921 65.0684 3.05875 64.8302 3.05875C64.473 3.17782 64.1753 3.35644 63.9371 3.59459C63.2227 3.95181 62.6869 4.66626 62.3296 5.3807C61.9724 6.09515 61.9724 6.80959 61.9724 7.70265C62.0915 8.41709 62.3296 9.13155 62.6869 9.84599C63.1632 10.5604 63.699 11.1558 64.2944 11.6321C65.0088 12.1084 65.7828 12.4656 66.6163 12.7038C67.3308 12.8824 68.2238 12.7038 69.1169 12.7038C70.7244 12.3466 72.3319 11.4535 73.4036 10.2032C74.6539 8.95293 75.3683 7.34543 75.5469 5.55931C75.5469 5.44024 75.6064 5.3807 75.7255 5.3807C75.8446 5.3807 75.9041 5.44024 75.9041 5.55931Z" fill="white"/>
<path d="M89.4786 9.13215C89.3 7.34603 88.5855 5.73853 87.3352 4.48825C86.2635 3.23797 84.656 2.52351 83.0485 2.16629C82.3341 2.16629 81.441 1.98768 80.7266 2.16629C79.8931 2.28537 79.1191 2.58305 78.4046 3.05935C77.8093 3.53565 77.2734 4.13102 76.7971 4.84547C76.4399 5.55991 76.2018 6.27435 76.0827 6.9888C75.9041 7.88186 76.0827 8.59631 76.4399 9.31076C76.6185 10.0252 77.1544 10.7396 77.8688 11.0969C78.226 11.335 78.5832 11.5136 78.9405 11.6327C79.0595 11.6327 79.2382 11.6922 79.4763 11.8113C79.7145 11.8113 79.8931 11.8113 80.0122 11.8113C80.9052 11.8113 81.6196 11.6327 82.1555 11.0969C83.4058 10.2038 83.763 8.06047 82.5127 6.9888C82.2746 6.75065 81.9173 6.57205 81.441 6.45297C81.0838 6.3339 80.7266 6.3339 80.3694 6.45297C79.6549 6.63158 79.1191 7.34603 79.1191 8.23909C79.1191 8.4177 79.1191 8.4177 78.9405 8.4177C78.8214 8.4177 78.7023 8.35816 78.5833 8.23909C78.5833 7.16742 79.1191 6.27436 80.1907 5.91713C81.2624 5.55991 82.3341 5.73853 83.0485 6.45297C83.4058 6.8102 83.7035 7.22695 83.9416 7.70325C84.1797 8.17955 84.2393 8.65585 84.1202 9.13215C84.1202 10.2038 83.5844 11.0969 82.8699 11.8113C82.1555 12.5258 81.0838 12.883 80.0122 12.883C79.774 12.883 79.5358 12.883 79.2977 12.883C79.0595 12.883 78.8214 12.8235 78.5833 12.7044C78.107 12.5853 77.6307 12.4067 77.1544 12.1685C76.4399 11.6327 75.7255 10.7397 75.3682 9.8466C75.1301 9.3703 74.9515 8.894 74.8324 8.4177C74.8324 8.17955 74.8324 7.9414 74.8324 7.70325V7.34603V6.9888C74.9515 5.91713 75.2492 4.96454 75.7255 4.13102C76.2018 3.2975 76.8567 2.58305 77.6902 1.98768C78.5237 1.51138 79.4168 1.15416 80.3694 0.916016C80.6075 0.916016 80.8457 0.916016 81.0838 0.916016H81.7983C82.0364 0.916016 82.2746 0.916016 82.5127 0.916016H82.8699L83.2272 1.09462C85.1919 1.45185 86.7994 2.52351 88.0497 3.95241C88.1687 4.19056 88.2878 4.36917 88.4069 4.48825L88.7641 5.20268L89.1213 5.73852C89.2404 5.97667 89.3595 6.21482 89.4786 6.45297C89.7167 7.28649 89.8358 8.17955 89.8358 9.13215C89.8358 9.25122 89.7762 9.31076 89.6572 9.31076C89.5381 9.31076 89.4786 9.25122 89.4786 9.13215Z" fill="white"/>
<path d="M103.945 5.55931C103.945 7.34543 103.231 9.31016 102.159 10.7391C100.909 11.9893 99.3012 13.061 97.3365 13.4182C96.503 13.6564 95.6099 13.7159 94.6573 13.5968C93.7047 13.4778 92.8117 13.1205 91.9782 12.5252C91.1446 11.9298 90.4897 11.2153 90.0134 10.3818C89.4181 9.5483 89.1204 8.65524 89.1204 7.70265L88.9418 7.34543V6.9882C88.9418 6.75005 89.0013 6.51191 89.1204 6.27376C89.1204 5.79747 89.2395 5.32116 89.4776 4.84486C89.8348 3.95181 90.5493 3.23735 91.2637 2.52291C91.74 2.28476 92.2163 2.10616 92.6926 1.98708C92.9307 1.86801 93.1689 1.80847 93.4071 1.80847C93.6452 1.80847 93.8833 1.80847 94.1215 1.80847C95.1932 1.62986 96.2648 2.1657 96.9793 2.70153C97.8724 3.41598 98.4082 4.48764 98.4082 5.55931C98.4082 6.03561 98.3486 6.5119 98.2296 6.9882C97.9914 7.58357 97.6937 8.05987 97.3365 8.4171C96.8602 8.77432 96.3839 9.01247 95.9076 9.13155C95.3718 9.13155 94.836 9.13155 94.3001 8.95294C93.2285 8.59571 92.6926 7.52404 92.8712 6.45237C92.8712 6.27376 92.8712 6.27376 93.0498 6.27376C93.1689 6.27376 93.2284 6.3333 93.2284 6.45237C93.2284 7.34543 93.9429 7.88127 94.4787 8.05988C94.8359 8.23849 95.1932 8.05988 95.5504 8.05988C95.9076 7.9408 96.2053 7.76219 96.4435 7.52404C97.5151 6.63098 97.3365 4.66626 96.2648 3.7732C95.729 3.23736 95.0146 2.88014 94.1215 2.88014C94.0024 2.88014 93.8238 2.88014 93.5857 2.88014C93.3475 2.99921 93.1689 3.05875 93.0498 3.05875C92.6926 3.17782 92.3354 3.35644 91.9782 3.59459C91.2637 3.95181 90.7279 4.66626 90.5493 5.3807C90.192 6.09515 90.0134 6.80959 90.192 7.70265C90.192 8.41709 90.4302 9.13155 90.9065 9.84599C91.2637 10.5604 91.7996 11.1558 92.514 11.6321C93.2285 12.1084 93.9429 12.4656 94.6573 12.7038C95.5504 12.8824 96.4434 12.7038 97.1579 12.7038C98.944 12.3466 100.373 11.4535 101.623 10.2032C102.695 8.95293 103.409 7.34543 103.588 5.55931C103.588 5.44024 103.647 5.3807 103.767 5.3807C103.886 5.3807 103.945 5.44024 103.945 5.55931Z" fill="white"/>
<path d="M117.7 9.13215C117.343 7.34603 116.628 5.73853 115.557 4.48825C114.306 3.23797 112.878 2.52351 111.27 2.16629C110.377 2.16629 109.484 1.98768 108.77 2.16629C107.936 2.28537 107.222 2.58305 106.626 3.05935C105.912 3.53565 105.376 4.13102 105.019 4.84547C104.542 5.55991 104.245 6.27435 104.126 6.9888C104.126 7.88186 104.126 8.59631 104.483 9.31076C104.84 10.0252 105.376 10.7396 105.912 11.0969C106.269 11.335 106.626 11.5136 106.983 11.6327C107.222 11.6327 107.4 11.6922 107.519 11.8113C107.757 11.8113 107.996 11.8113 108.234 11.8113C108.948 11.8113 109.663 11.6327 110.377 11.0969C111.449 10.2038 111.806 8.06047 110.556 6.9888C110.317 6.75065 110.02 6.57205 109.663 6.45297C109.305 6.3339 108.948 6.3339 108.591 6.45297C107.876 6.63158 107.341 7.34603 107.341 8.23909C107.341 8.4177 107.162 8.4177 106.983 8.4177C106.864 8.4177 106.805 8.35816 106.805 8.23909C106.626 7.16742 107.341 6.27436 108.234 5.91713C109.305 5.55991 110.377 5.73853 111.091 6.45297C111.568 6.8102 111.865 7.22695 111.985 7.70325C112.223 8.17955 112.342 8.65585 112.342 9.13215C112.163 10.2038 111.627 11.0969 110.913 11.8113C110.198 12.5258 109.127 12.883 108.234 12.883C107.996 12.883 107.757 12.883 107.519 12.883C107.281 12.883 107.043 12.8235 106.805 12.7044C106.209 12.5853 105.733 12.4067 105.376 12.1685C104.483 11.6327 103.768 10.7397 103.411 9.8466C103.173 9.3703 103.054 8.894 103.054 8.4177C102.935 8.17955 102.875 7.9414 102.875 7.70325V7.34603L103.054 6.9888C103.054 5.91713 103.352 4.96454 103.947 4.13102C104.423 3.2975 105.078 2.58305 105.912 1.98768C106.745 1.51138 107.638 1.15416 108.591 0.916016C108.829 0.916016 109.067 0.916016 109.305 0.916016H110.02C110.258 0.916016 110.496 0.916016 110.734 0.916016H111.091L111.449 1.09462C113.235 1.45185 115.021 2.52351 116.093 3.95241C116.331 4.19056 116.509 4.36917 116.628 4.48825L116.986 5.20268L117.343 5.73852C117.343 5.97667 117.402 6.21482 117.522 6.45297C117.879 7.28649 118.057 8.17955 118.057 9.13215C117.938 9.25122 117.879 9.31076 117.879 9.31076C117.76 9.31076 117.7 9.25122 117.7 9.13215Z" fill="white"/>
<path d="M131.808 5.55931C131.808 7.34543 131.094 9.31016 129.844 10.7391C128.772 11.9893 126.986 13.061 125.2 13.4182C124.247 13.6564 123.295 13.7159 122.342 13.5968C121.389 13.4778 120.496 13.1205 119.663 12.5252C118.948 11.9298 118.293 11.2153 117.698 10.3818C117.222 9.5483 116.924 8.65524 116.805 7.70265V7.34543V6.9882C116.805 6.75005 116.805 6.51191 116.805 6.27376C116.924 5.79747 117.043 5.32116 117.162 4.84486C117.698 3.95181 118.234 3.23735 119.127 2.52291C119.603 2.28476 120.08 2.10616 120.556 1.98708C120.794 1.86801 121.032 1.80847 121.27 1.80847C121.508 1.80847 121.747 1.80847 121.985 1.80847C123.056 1.62986 124.128 2.1657 124.843 2.70153C125.557 3.41598 126.093 4.48764 126.271 5.55931C126.271 6.03561 126.212 6.5119 126.093 6.9882C125.855 7.58357 125.497 8.05987 125.021 8.4171C124.664 8.77432 124.188 9.01247 123.592 9.13155C123.056 9.13155 122.521 9.13155 121.985 8.95294C121.092 8.59571 120.377 7.52404 120.556 6.45237C120.556 6.27376 120.735 6.27376 120.913 6.27376C121.032 6.27376 121.092 6.3333 121.092 6.45237C121.092 7.34543 121.628 7.88127 122.342 8.05988C122.699 8.23849 123.056 8.05988 123.414 8.05988C123.771 7.9408 124.069 7.76219 124.307 7.52404C125.378 6.63098 125.2 4.66626 123.95 3.7732C123.414 3.23736 122.699 2.88014 121.985 2.88014C121.747 2.88014 121.568 2.88014 121.449 2.88014C121.211 2.99921 121.032 3.05875 120.913 3.05875C120.437 3.17782 120.08 3.35644 119.841 3.59459C119.127 3.95181 118.591 4.66626 118.234 5.3807C117.877 6.09515 117.877 6.80959 117.877 7.70265C117.996 8.41709 118.234 9.13155 118.591 9.84599C119.067 10.5604 119.663 11.1558 120.377 11.6321C120.973 12.1084 121.687 12.4656 122.521 12.7038C123.414 12.8824 124.128 12.7038 125.021 12.7038C126.629 12.3466 128.236 11.4535 129.308 10.2032C130.558 8.95293 131.273 7.34543 131.451 5.55931C131.451 5.44024 131.511 5.3807 131.63 5.3807C131.749 5.3807 131.808 5.44024 131.808 5.55931Z" fill="white"/>
<path d="M145.385 9.13215C145.206 7.34603 144.492 5.73853 143.241 4.48825C142.17 3.23797 140.562 2.52351 138.955 2.16629C138.24 2.16629 137.347 1.98768 136.633 2.16629C135.799 2.28537 135.025 2.58305 134.311 3.05935C133.716 3.53565 133.18 4.13102 132.703 4.84547C132.346 5.55991 132.108 6.27435 131.989 6.9888C131.989 7.88186 131.989 8.59631 132.346 9.31076C132.703 10.0252 133.061 10.7396 133.775 11.0969C134.132 11.335 134.489 11.5136 134.847 11.6327C135.085 11.6327 135.263 11.6922 135.383 11.8113C135.621 11.8113 135.799 11.8113 135.918 11.8113C136.811 11.8113 137.526 11.6327 138.062 11.0969C139.312 10.2038 139.669 8.06047 138.419 6.9888C138.181 6.75065 137.883 6.57205 137.526 6.45297C137.05 6.3339 136.633 6.3339 136.276 6.45297C135.561 6.63158 135.025 7.34603 135.025 8.23909C135.025 8.4177 135.025 8.4177 134.847 8.4177C134.728 8.4177 134.668 8.35816 134.668 8.23909C134.489 7.16742 135.204 6.27436 136.097 5.91713C137.169 5.55991 138.24 5.73853 138.955 6.45297C139.312 6.8102 139.61 7.22695 139.848 7.70325C140.086 8.17955 140.146 8.65585 140.026 9.13215C140.026 10.2038 139.491 11.0969 138.776 11.8113C138.062 12.5258 136.99 12.883 135.918 12.883C135.68 12.883 135.442 12.883 135.204 12.883C134.966 12.883 134.728 12.8235 134.49 12.7044C134.013 12.5853 133.596 12.4067 133.239 12.1685C132.346 11.6327 131.632 10.7397 131.274 9.8466C131.036 9.3703 130.858 8.894 130.739 8.4177C130.739 8.17955 130.739 7.9414 130.739 7.70325V7.34603V6.9888C130.858 5.91713 131.155 4.96454 131.632 4.13102C132.227 3.2975 132.882 2.58305 133.596 1.98768C134.43 1.51138 135.383 1.15416 136.454 0.916016C136.692 0.916016 136.931 0.916016 137.169 0.916016H137.883C138.121 0.916016 138.359 0.916016 138.598 0.916016H138.955L139.312 1.09462C141.098 1.45185 142.706 2.52351 143.956 3.95241C144.075 4.19056 144.194 4.36917 144.313 4.48825L144.849 5.20268L145.028 5.73852C145.147 5.97667 145.266 6.21482 145.385 6.45297C145.623 7.28649 145.742 8.17955 145.742 9.13215C145.742 9.25122 145.682 9.31076 145.563 9.31076C145.563 9.31076 145.504 9.25122 145.385 9.13215Z" fill="white"/>
<path d="M205.756 8.23945L146.099 8.77527C145.385 8.77527 145.028 8.41805 145.028 7.7036C145.028 7.16777 145.385 6.81055 145.921 6.81055C146.04 6.81055 146.099 6.81055 146.099 6.81055L205.756 7.34639C205.934 7.34639 206.113 7.52499 206.113 7.7036C206.113 8.06083 205.934 8.23945 205.756 8.23945Z" fill="white"/>
<path d="M1.2443 7.34639L61.0792 6.81055C61.615 6.81055 61.9723 7.16777 61.9723 7.7036C61.9723 8.41805 61.615 8.77527 61.0792 8.77527L1.2443 8.23945C1.06569 8.23945 0.887085 8.06083 0.887085 7.7036C0.887085 7.52499 1.06569 7.34639 1.2443 7.34639Z" fill="white"/>
<path d="M81.2616 8.05976C81.2616 8.7742 80.7257 9.31003 80.0113 9.31003C79.2968 9.31003 78.5824 8.7742 78.5824 8.05976C78.5824 7.34531 79.2968 6.63086 80.0113 6.63086C80.7257 6.63086 81.2616 7.34531 81.2616 8.05976Z" fill="white"/>
<path d="M95.3729 6.63114C95.3729 7.34558 94.8371 8.06003 94.1226 8.06003C93.4082 8.06003 92.6937 7.34558 92.6937 6.63114C92.6937 5.91669 93.4082 5.38086 94.1226 5.38086C94.8371 5.38086 95.3729 5.91669 95.3729 6.63114Z" fill="white"/>
<path d="M109.304 8.06084C109.304 8.77528 108.768 9.48972 108.053 9.48972C107.339 9.48972 106.803 8.77528 106.803 8.06084C106.803 7.34639 107.339 6.81055 108.053 6.81055C108.768 6.81055 109.304 7.34639 109.304 8.06084Z" fill="white"/>
<path d="M123.236 6.63114C123.236 7.34558 122.522 7.88141 121.807 7.88141C121.093 7.88141 120.557 7.34558 120.557 6.63114C120.557 5.91669 121.093 5.38086 121.807 5.38086C122.522 5.38086 123.236 5.91669 123.236 6.63114Z" fill="white"/>
<path d="M137.168 8.06084C137.168 8.77528 136.632 9.48972 135.918 9.48972C135.203 9.48972 134.489 8.77528 134.489 8.06084C134.489 7.34639 135.203 6.81055 135.918 6.81055C136.632 6.81055 137.168 7.34639 137.168 8.06084Z" fill="white"/>
<path d="M67.3319 6.63202C67.3319 7.34647 66.6174 7.8823 65.903 7.8823C65.1885 7.8823 64.6527 7.34647 64.6527 6.63202C64.6527 5.91758 65.1885 5.20312 65.903 5.20312C66.6174 5.20312 67.3319 5.91758 67.3319 6.63202Z" fill="white"/>
</svg>
