<svg width="34" height="34" viewBox="0 0 34 34" fill="none" xmlns="http://www.w3.org/2000/svg">
<path opacity="0.1" fill-rule="evenodd" clip-rule="evenodd" d="M0.942993 16.5285C0.942993 7.40006 8.34306 0 17.4715 0C26.5999 0 34 7.40006 34 16.5285C34 25.6569 26.5999 33.057 17.4715 33.057C8.34306 33.057 0.942993 25.6569 0.942993 16.5285Z" fill="#797171"/>
<g clip-path="url(#clip0_12_4150)">
<path d="M12.8771 24.5016H9.23331V12.818H12.8771V24.5016ZM11.0533 11.2242C9.88808 11.2242 8.94299 10.2633 8.94299 9.10312C8.94299 8.54586 9.16532 8.01142 9.56108 7.61737C9.95683 7.22333 10.4936 7.00195 11.0533 7.00195C11.6129 7.00195 12.1497 7.22333 12.5454 7.61737C12.9412 8.01142 13.1635 8.54586 13.1635 9.10312C13.1635 10.2633 12.218 11.2242 11.0533 11.2242ZM26.5148 24.5016H22.8788V18.8141C22.8788 17.4586 22.8514 15.7203 20.9843 15.7203C19.0899 15.7203 18.7995 17.193 18.7995 18.7164V24.5016H15.1596V12.818H18.6544V14.4117H18.7054C19.1919 13.4938 20.3802 12.525 22.1531 12.525C25.8408 12.525 26.5187 14.943 26.5187 18.0836V24.5016H26.5148Z" fill="white" fill-opacity="0.8"/>
</g>
<defs>
<clipPath id="clip0_12_4150">
<rect width="17.5758" height="20" fill="white" transform="translate(8.94299 7)"/>
</clipPath>
</defs>
</svg>
