<svg width="259" height="27" viewBox="0 0 259 27" fill="none" xmlns="http://www.w3.org/2000/svg">
<path d="M4 5.5H20C21.1 5.5 22 6.4 22 7.5V19.5C22 20.6 21.1 21.5 20 21.5H4C2.9 21.5 2 20.6 2 19.5V7.5C2 6.4 2.9 5.5 4 5.5Z" stroke="#494F59" stroke-width="1.5" stroke-linecap="round" stroke-linejoin="round"/>
<path d="M22 7.5L12 14.5L2 7.5" stroke="#494F59" stroke-width="1.5" stroke-linecap="round" stroke-linejoin="round"/>
<path d="M39.384 11.486V17.3C39.384 17.78 39.486 18.122 39.69 18.326C39.894 18.518 40.248 18.614 40.752 18.614H41.958V20H40.482C39.57 20 38.886 19.79 38.43 19.37C37.974 18.95 37.746 18.26 37.746 17.3V11.486H36.468V10.136H37.746V7.652H39.384V10.136H41.958V11.486H39.384ZM43.3306 15.032C43.3306 14.024 43.5346 13.142 43.9426 12.386C44.3506 11.618 44.9086 11.024 45.6166 10.604C46.3366 10.184 47.1346 9.974 48.0106 9.974C48.8746 9.974 49.6246 10.16 50.2606 10.532C50.8966 10.904 51.3706 11.372 51.6826 11.936V10.136H53.3386V20H51.6826V18.164C51.3586 18.74 50.8726 19.22 50.2246 19.604C49.5886 19.976 48.8446 20.162 47.9926 20.162C47.1166 20.162 46.3246 19.946 45.6166 19.514C44.9086 19.082 44.3506 18.476 43.9426 17.696C43.5346 16.916 43.3306 16.028 43.3306 15.032ZM51.6826 15.05C51.6826 14.306 51.5326 13.658 51.2326 13.106C50.9326 12.554 50.5246 12.134 50.0086 11.846C49.5046 11.546 48.9466 11.396 48.3346 11.396C47.7226 11.396 47.1646 11.54 46.6606 11.828C46.1566 12.116 45.7546 12.536 45.4546 13.088C45.1546 13.64 45.0046 14.288 45.0046 15.032C45.0046 15.788 45.1546 16.448 45.4546 17.012C45.7546 17.564 46.1566 17.99 46.6606 18.29C47.1646 18.578 47.7226 18.722 48.3346 18.722C48.9466 18.722 49.5046 18.578 50.0086 18.29C50.5246 17.99 50.9326 17.564 51.2326 17.012C51.5326 16.448 51.6826 15.794 51.6826 15.05ZM60.9127 9.956C62.1127 9.956 63.0847 10.322 63.8287 11.054C64.5727 11.774 64.9447 12.818 64.9447 14.186V20H63.3247V14.42C63.3247 13.436 63.0787 12.686 62.5867 12.17C62.0947 11.642 61.4227 11.378 60.5707 11.378C59.7067 11.378 59.0167 11.648 58.5007 12.188C57.9967 12.728 57.7447 13.514 57.7447 14.546V20H56.1067V10.136H57.7447V11.54C58.0687 11.036 58.5067 10.646 59.0587 10.37C59.6227 10.094 60.2407 9.956 60.9127 9.956ZM76.1164 10.136L70.1764 24.644H68.4844L70.4284 19.892L66.4504 10.136H68.2684L71.3644 18.128L74.4244 10.136H76.1164ZM77.151 15.032C77.151 14.024 77.355 13.142 77.763 12.386C78.171 11.618 78.729 11.024 79.437 10.604C80.157 10.184 80.955 9.974 81.831 9.974C82.695 9.974 83.445 10.16 84.081 10.532C84.717 10.904 85.191 11.372 85.503 11.936V10.136H87.159V20H85.503V18.164C85.179 18.74 84.693 19.22 84.045 19.604C83.409 19.976 82.665 20.162 81.813 20.162C80.937 20.162 80.145 19.946 79.437 19.514C78.729 19.082 78.171 18.476 77.763 17.696C77.355 16.916 77.151 16.028 77.151 15.032ZM85.503 15.05C85.503 14.306 85.353 13.658 85.053 13.106C84.753 12.554 84.345 12.134 83.829 11.846C83.325 11.546 82.767 11.396 82.155 11.396C81.543 11.396 80.985 11.54 80.481 11.828C79.977 12.116 79.575 12.536 79.275 13.088C78.975 13.64 78.825 14.288 78.825 15.032C78.825 15.788 78.975 16.448 79.275 17.012C79.575 17.564 79.977 17.99 80.481 18.29C80.985 18.578 81.543 18.722 82.155 18.722C82.767 18.722 83.325 18.578 83.829 18.29C84.345 17.99 84.753 17.564 85.053 17.012C85.353 16.448 85.503 15.794 85.503 15.05ZM90.449 20.108C90.137 20.108 89.873 20 89.657 19.784C89.441 19.568 89.333 19.304 89.333 18.992C89.333 18.68 89.441 18.416 89.657 18.2C89.873 17.984 90.137 17.876 90.449 17.876C90.749 17.876 91.001 17.984 91.205 18.2C91.421 18.416 91.529 18.68 91.529 18.992C91.529 19.304 91.421 19.568 91.205 19.784C91.001 20 90.749 20.108 90.449 20.108ZM98.6023 9.956C99.3463 9.956 100.018 10.118 100.618 10.442C101.218 10.754 101.686 11.228 102.022 11.864C102.37 12.5 102.544 13.274 102.544 14.186V20H100.924V14.42C100.924 13.436 100.678 12.686 100.186 12.17C99.6943 11.642 99.0223 11.378 98.1703 11.378C97.3063 11.378 96.6163 11.648 96.1003 12.188C95.5963 12.728 95.3443 13.514 95.3443 14.546V20H93.7063V6.68H95.3443V11.54C95.6683 11.036 96.1123 10.646 96.6763 10.37C97.2523 10.094 97.8943 9.956 98.6023 9.956ZM106.066 8.534C105.754 8.534 105.49 8.426 105.274 8.21C105.058 7.994 104.95 7.73 104.95 7.418C104.95 7.106 105.058 6.842 105.274 6.626C105.49 6.41 105.754 6.302 106.066 6.302C106.366 6.302 106.618 6.41 106.822 6.626C107.038 6.842 107.146 7.106 107.146 7.418C107.146 7.73 107.038 7.994 106.822 8.21C106.618 8.426 106.366 8.534 106.066 8.534ZM106.858 10.136V20H105.22V10.136H106.858ZM111.288 6.68V20H109.65V6.68H111.288ZM115.717 6.68V20H114.079V6.68H115.717ZM127.509 8.462C128.841 8.462 129.999 8.714 130.983 9.218C131.967 9.722 132.723 10.43 133.251 11.342C133.779 12.242 134.043 13.286 134.043 14.474C134.043 15.422 133.887 16.334 133.575 17.21C133.263 18.074 132.807 18.776 132.207 19.316C131.619 19.856 130.929 20.126 130.137 20.126C129.537 20.126 129.075 19.976 128.751 19.676C128.427 19.376 128.241 18.968 128.193 18.452C127.821 18.968 127.347 19.376 126.771 19.676C126.207 19.976 125.607 20.126 124.971 20.126C124.059 20.126 123.339 19.85 122.811 19.298C122.295 18.734 122.037 17.978 122.037 17.03C122.037 16.13 122.223 15.29 122.595 14.51C122.979 13.73 123.507 13.106 124.179 12.638C124.851 12.158 125.613 11.918 126.465 11.918C127.605 11.918 128.373 12.35 128.769 13.214L128.967 12.098H130.389L129.489 17.3C129.453 17.528 129.435 17.738 129.435 17.93C129.435 18.65 129.753 19.01 130.389 19.01C130.869 19.01 131.283 18.782 131.631 18.326C131.991 17.87 132.261 17.3 132.441 16.616C132.621 15.92 132.711 15.236 132.711 14.564C132.711 12.992 132.237 11.774 131.289 10.91C130.353 10.046 129.027 9.614 127.311 9.614C125.883 9.614 124.593 9.962 123.441 10.658C122.301 11.342 121.407 12.284 120.759 13.484C120.111 14.684 119.787 16.01 119.787 17.462C119.775 19.046 120.249 20.264 121.209 21.116C122.169 21.98 123.501 22.412 125.205 22.412C126.333 22.412 127.329 22.208 128.193 21.8L128.409 22.916C127.341 23.36 126.165 23.582 124.881 23.582C123.597 23.582 122.463 23.336 121.479 22.844C120.507 22.364 119.751 21.668 119.211 20.756C118.683 19.856 118.419 18.806 118.419 17.606C118.419 15.914 118.809 14.372 119.589 12.98C120.369 11.576 121.449 10.472 122.829 9.668C124.221 8.864 125.781 8.462 127.509 8.462ZM125.457 18.848C125.997 18.848 126.495 18.692 126.951 18.38C127.407 18.056 127.767 17.624 128.031 17.084C128.295 16.532 128.427 15.932 128.427 15.284C128.427 14.66 128.253 14.156 127.905 13.772C127.569 13.376 127.089 13.178 126.465 13.178C125.889 13.178 125.379 13.352 124.935 13.7C124.503 14.036 124.167 14.486 123.927 15.05C123.687 15.602 123.567 16.178 123.567 16.778C123.567 17.414 123.729 17.918 124.053 18.29C124.377 18.662 124.845 18.848 125.457 18.848ZM145.738 14.69C145.738 15.002 145.72 15.332 145.684 15.68H137.8C137.86 16.652 138.19 17.414 138.79 17.966C139.402 18.506 140.14 18.776 141.004 18.776C141.712 18.776 142.3 18.614 142.768 18.29C143.248 17.954 143.584 17.51 143.776 16.958H145.54C145.276 17.906 144.748 18.68 143.956 19.28C143.164 19.868 142.18 20.162 141.004 20.162C140.068 20.162 139.228 19.952 138.484 19.532C137.752 19.112 137.176 18.518 136.756 17.75C136.336 16.97 136.126 16.07 136.126 15.05C136.126 14.03 136.33 13.136 136.738 12.368C137.146 11.6 137.716 11.012 138.448 10.604C139.192 10.184 140.044 9.974 141.004 9.974C141.94 9.974 142.768 10.178 143.488 10.586C144.208 10.994 144.76 11.558 145.144 12.278C145.54 12.986 145.738 13.79 145.738 14.69ZM144.046 14.348C144.046 13.724 143.908 13.19 143.632 12.746C143.356 12.29 142.978 11.948 142.498 11.72C142.03 11.48 141.508 11.36 140.932 11.36C140.104 11.36 139.396 11.624 138.808 12.152C138.232 12.68 137.902 13.412 137.818 14.348H144.046ZM153.048 20L150.708 16.328L148.458 20H146.748L149.934 15.104L146.748 10.136H148.602L150.942 13.79L153.174 10.136H154.884L151.716 15.014L154.902 20H153.048ZM155.901 15.032C155.901 14.024 156.105 13.142 156.513 12.386C156.921 11.618 157.479 11.024 158.187 10.604C158.907 10.184 159.705 9.974 160.581 9.974C161.445 9.974 162.195 10.16 162.831 10.532C163.467 10.904 163.941 11.372 164.253 11.936V10.136H165.909V20H164.253V18.164C163.929 18.74 163.443 19.22 162.795 19.604C162.159 19.976 161.415 20.162 160.563 20.162C159.687 20.162 158.895 19.946 158.187 19.514C157.479 19.082 156.921 18.476 156.513 17.696C156.105 16.916 155.901 16.028 155.901 15.032ZM164.253 15.05C164.253 14.306 164.103 13.658 163.803 13.106C163.503 12.554 163.095 12.134 162.579 11.846C162.075 11.546 161.517 11.396 160.905 11.396C160.293 11.396 159.735 11.54 159.231 11.828C158.727 12.116 158.325 12.536 158.025 13.088C157.725 13.64 157.575 14.288 157.575 15.032C157.575 15.788 157.725 16.448 158.025 17.012C158.325 17.564 158.727 17.99 159.231 18.29C159.735 18.578 160.293 18.722 160.905 18.722C161.517 18.722 162.075 18.578 162.579 18.29C163.095 17.99 163.503 17.564 163.803 17.012C164.103 16.448 164.253 15.794 164.253 15.05ZM180.539 9.956C181.307 9.956 181.991 10.118 182.591 10.442C183.191 10.754 183.665 11.228 184.013 11.864C184.361 12.5 184.535 13.274 184.535 14.186V20H182.915V14.42C182.915 13.436 182.669 12.686 182.177 12.17C181.697 11.642 181.043 11.378 180.215 11.378C179.363 11.378 178.685 11.654 178.181 12.206C177.677 12.746 177.425 13.532 177.425 14.564V20H175.805V14.42C175.805 13.436 175.559 12.686 175.067 12.17C174.587 11.642 173.933 11.378 173.105 11.378C172.253 11.378 171.575 11.654 171.071 12.206C170.567 12.746 170.315 13.532 170.315 14.564V20H168.677V10.136H170.315V11.558C170.639 11.042 171.071 10.646 171.611 10.37C172.163 10.094 172.769 9.956 173.429 9.956C174.257 9.956 174.989 10.142 175.625 10.514C176.261 10.886 176.735 11.432 177.047 12.152C177.323 11.456 177.779 10.916 178.415 10.532C179.051 10.148 179.759 9.956 180.539 9.956ZM188.86 11.954C189.184 11.39 189.664 10.922 190.3 10.55C190.948 10.166 191.698 9.974 192.55 9.974C193.426 9.974 194.218 10.184 194.926 10.604C195.646 11.024 196.21 11.618 196.618 12.386C197.026 13.142 197.23 14.024 197.23 15.032C197.23 16.028 197.026 16.916 196.618 17.696C196.21 18.476 195.646 19.082 194.926 19.514C194.218 19.946 193.426 20.162 192.55 20.162C191.71 20.162 190.966 19.976 190.318 19.604C189.682 19.22 189.196 18.746 188.86 18.182V24.68H187.222V10.136H188.86V11.954ZM195.556 15.032C195.556 14.288 195.406 13.64 195.106 13.088C194.806 12.536 194.398 12.116 193.882 11.828C193.378 11.54 192.82 11.396 192.208 11.396C191.608 11.396 191.05 11.546 190.534 11.846C190.03 12.134 189.622 12.56 189.31 13.124C189.01 13.676 188.86 14.318 188.86 15.05C188.86 15.794 189.01 16.448 189.31 17.012C189.622 17.564 190.03 17.99 190.534 18.29C191.05 18.578 191.608 18.722 192.208 18.722C192.82 18.722 193.378 18.578 193.882 18.29C194.398 17.99 194.806 17.564 195.106 17.012C195.406 16.448 195.556 15.788 195.556 15.032ZM201.024 6.68V20H199.386V6.68H201.024ZM212.816 14.69C212.816 15.002 212.798 15.332 212.762 15.68H204.878C204.938 16.652 205.268 17.414 205.868 17.966C206.48 18.506 207.218 18.776 208.082 18.776C208.79 18.776 209.378 18.614 209.846 18.29C210.326 17.954 210.662 17.51 210.854 16.958H212.618C212.354 17.906 211.826 18.68 211.034 19.28C210.242 19.868 209.258 20.162 208.082 20.162C207.146 20.162 206.306 19.952 205.562 19.532C204.83 19.112 204.254 18.518 203.834 17.75C203.414 16.97 203.204 16.07 203.204 15.05C203.204 14.03 203.408 13.136 203.816 12.368C204.224 11.6 204.794 11.012 205.526 10.604C206.27 10.184 207.122 9.974 208.082 9.974C209.018 9.974 209.846 10.178 210.566 10.586C211.286 10.994 211.838 11.558 212.222 12.278C212.618 12.986 212.816 13.79 212.816 14.69ZM211.124 14.348C211.124 13.724 210.986 13.19 210.71 12.746C210.434 12.29 210.056 11.948 209.576 11.72C209.108 11.48 208.586 11.36 208.01 11.36C207.182 11.36 206.474 11.624 205.886 12.152C205.31 12.68 204.98 13.412 204.896 14.348H211.124ZM215.5 20.108C215.188 20.108 214.924 20 214.708 19.784C214.492 19.568 214.384 19.304 214.384 18.992C214.384 18.68 214.492 18.416 214.708 18.2C214.924 17.984 215.188 17.876 215.5 17.876C215.8 17.876 216.052 17.984 216.256 18.2C216.472 18.416 216.58 18.68 216.58 18.992C216.58 19.304 216.472 19.568 216.256 19.784C216.052 20 215.8 20.108 215.5 20.108ZM218.145 15.05C218.145 14.03 218.349 13.142 218.757 12.386C219.165 11.618 219.729 11.024 220.449 10.604C221.181 10.184 222.015 9.974 222.951 9.974C224.163 9.974 225.159 10.268 225.939 10.856C226.731 11.444 227.253 12.26 227.505 13.304H225.741C225.573 12.704 225.243 12.23 224.751 11.882C224.271 11.534 223.671 11.36 222.951 11.36C222.015 11.36 221.259 11.684 220.683 12.332C220.107 12.968 219.819 13.874 219.819 15.05C219.819 16.238 220.107 17.156 220.683 17.804C221.259 18.452 222.015 18.776 222.951 18.776C223.671 18.776 224.271 18.608 224.751 18.272C225.231 17.936 225.561 17.456 225.741 16.832H227.505C227.241 17.84 226.713 18.65 225.921 19.262C225.129 19.862 224.139 20.162 222.951 20.162C222.015 20.162 221.181 19.952 220.449 19.532C219.729 19.112 219.165 18.518 218.757 17.75C218.349 16.982 218.145 16.082 218.145 15.05ZM233.993 20.162C233.069 20.162 232.229 19.952 231.473 19.532C230.729 19.112 230.141 18.518 229.709 17.75C229.289 16.97 229.079 16.07 229.079 15.05C229.079 14.042 229.295 13.154 229.727 12.386C230.171 11.606 230.771 11.012 231.527 10.604C232.283 10.184 233.129 9.974 234.065 9.974C235.001 9.974 235.847 10.184 236.603 10.604C237.359 11.012 237.953 11.6 238.385 12.368C238.829 13.136 239.051 14.03 239.051 15.05C239.051 16.07 238.823 16.97 238.367 17.75C237.923 18.518 237.317 19.112 236.549 19.532C235.781 19.952 234.929 20.162 233.993 20.162ZM233.993 18.722C234.581 18.722 235.133 18.584 235.649 18.308C236.165 18.032 236.579 17.618 236.891 17.066C237.215 16.514 237.377 15.842 237.377 15.05C237.377 14.258 237.221 13.586 236.909 13.034C236.597 12.482 236.189 12.074 235.685 11.81C235.181 11.534 234.635 11.396 234.047 11.396C233.447 11.396 232.895 11.534 232.391 11.81C231.899 12.074 231.503 12.482 231.203 13.034C230.903 13.586 230.753 14.258 230.753 15.05C230.753 15.854 230.897 16.532 231.185 17.084C231.485 17.636 231.881 18.05 232.373 18.326C232.865 18.59 233.405 18.722 233.993 18.722ZM253.066 9.956C253.834 9.956 254.518 10.118 255.118 10.442C255.718 10.754 256.192 11.228 256.54 11.864C256.888 12.5 257.062 13.274 257.062 14.186V20H255.442V14.42C255.442 13.436 255.196 12.686 254.704 12.17C254.224 11.642 253.57 11.378 252.742 11.378C251.89 11.378 251.212 11.654 250.708 12.206C250.204 12.746 249.952 13.532 249.952 14.564V20H248.332V14.42C248.332 13.436 248.086 12.686 247.594 12.17C247.114 11.642 246.46 11.378 245.632 11.378C244.78 11.378 244.102 11.654 243.598 12.206C243.094 12.746 242.842 13.532 242.842 14.564V20H241.204V10.136H242.842V11.558C243.166 11.042 243.598 10.646 244.138 10.37C244.69 10.094 245.296 9.956 245.956 9.956C246.784 9.956 247.516 10.142 248.152 10.514C248.788 10.886 249.262 11.432 249.574 12.152C249.85 11.456 250.306 10.916 250.942 10.532C251.578 10.148 252.286 9.956 253.066 9.956Z" fill="#242424"/>
</svg>
