<svg width="35" height="25" viewBox="0 0 35 25" fill="none" xmlns="http://www.w3.org/2000/svg">
<rect x="0.5" y="1" width="34" height="23" rx="3.5" fill="white" stroke="#D9D9D9"/>
<path d="M17.0517 7.6694C17.0711 7.65755 17.0955 7.65755 17.1149 7.6694L24.4202 12.1353C24.441 12.148 24.4453 12.1583 24.4471 12.1634C24.4502 12.1719 24.4518 12.1862 24.4469 12.2033C24.4421 12.2205 24.4333 12.2318 24.4263 12.2375C24.4221 12.2409 24.413 12.2474 24.3887 12.2474H9.77792C9.75357 12.2474 9.74449 12.2409 9.74027 12.2375C9.73327 12.2318 9.72447 12.2205 9.71965 12.2033C9.71482 12.1862 9.71642 12.1719 9.71944 12.1634C9.72125 12.1583 9.72558 12.148 9.74635 12.1353L17.0517 7.6694Z" fill="white" stroke="#0038C6" stroke-width="0.791667"/>
<rect x="11.7988" y="13.2497" width="1.06487" height="3.51902" rx="0.532435" fill="#0038C6"/>
<rect x="15.9062" y="13.2497" width="1.06487" height="3.51902" rx="0.532435" fill="#0038C6"/>
<rect x="20.0137" y="13.2497" width="1.06487" height="3.51902" rx="0.532435" fill="#0038C6"/>
<rect x="9.89453" y="18.1007" width="14.2058" height="1.23268" rx="0.616342" fill="#0038C6"/>
<g clip-path="url(#clip0_1_3329)">
<path d="M21.76 13.8127C23.554 13.8127 25.0083 12.3584 25.0083 10.5645C25.0083 8.77047 23.554 7.31616 21.76 7.31616C19.966 7.31616 18.5117 8.77047 18.5117 10.5645C18.5117 12.3584 19.966 13.8127 21.76 13.8127Z" fill="white" stroke="#EE1B17" stroke-width="0.865938" stroke-linecap="round" stroke-linejoin="round"/>
<path d="M21.7622 7.31622C22.5747 8.20572 23.0364 9.36006 23.0615 10.5645C23.0364 11.769 22.5747 12.9233 21.7622 13.8128C20.9497 12.9233 20.488 11.769 20.4629 10.5645C20.488 9.36006 20.9497 8.20572 21.7622 7.31622Z" fill="white" stroke="#EE1B17" stroke-width="0.865938" stroke-linecap="round" stroke-linejoin="round"/>
<path d="M18.5117 10.5648H25.0083" stroke="#EE1B17" stroke-width="0.865938" stroke-linecap="round" stroke-linejoin="round"/>
</g>
<defs>
<clipPath id="clip0_1_3329">
<rect width="7.79589" height="7.79589" fill="white" transform="translate(17.8633 6.66663)"/>
</clipPath>
</defs>
</svg>
