<svg width="207" height="13" viewBox="0 0 207 13" fill="none" xmlns="http://www.w3.org/2000/svg">
<path d="M75.9038 4.6433C75.7251 6.42941 75.1893 8.39414 73.939 9.82304C72.6887 11.0733 71.0812 12.145 69.2951 12.5022C68.3425 12.7404 67.3899 12.7999 66.4373 12.6808C65.4847 12.5617 64.5917 12.2045 63.7582 11.6092C62.9246 11.0138 62.2697 10.2993 61.7934 9.46581C61.3172 8.63229 61.0195 7.73923 60.9004 6.78663V6.42941V6.07218C60.9004 5.83403 60.9004 5.5959 60.9004 5.35775C61.0195 4.88145 61.1385 4.40515 61.2576 3.92885C61.7934 3.03579 62.3293 2.32134 63.2223 1.60689C63.6986 1.36874 64.1749 1.19014 64.6512 1.07107C64.8894 0.951991 65.1275 0.892457 65.3657 0.892457C65.6038 0.892457 65.842 0.892457 66.0801 0.892457C67.1518 0.713845 68.0449 1.24968 68.9379 1.78552C69.6524 2.49996 70.1882 3.57163 70.3668 4.6433C70.3668 5.1196 70.2477 5.59589 70.0096 6.07218C69.8905 6.66755 69.5928 7.14386 69.1165 7.50108C68.7593 7.8583 68.283 8.09646 67.6876 8.21553C67.1518 8.21553 66.616 8.21553 66.0801 8.03692C65.1871 7.6797 64.4726 6.60803 64.6512 5.53636C64.6512 5.35774 64.8298 5.35775 65.0084 5.35775C65.1275 5.35775 65.1871 5.41728 65.1871 5.53636C65.1871 6.42941 65.7229 6.96525 66.4373 7.14386C66.7946 7.32247 67.1518 7.14386 67.509 7.14386C67.8662 7.02479 68.1639 6.84617 68.4021 6.60802C69.4737 5.71496 69.1165 3.75024 68.0449 2.85718C67.509 2.32135 66.7946 1.96412 66.0801 1.96412C65.842 1.96412 65.6634 1.96412 65.5443 1.96412C65.3061 2.0832 65.068 2.14273 64.8298 2.14273C64.4726 2.26181 64.1749 2.44042 63.9368 2.67857C63.2223 3.0358 62.6865 3.75024 62.3293 4.46469C61.972 5.17914 61.972 5.89357 61.972 6.78663C62.0911 7.50108 62.3293 8.21553 62.6865 8.92998C63.1628 9.64443 63.6986 10.2398 64.294 10.7161C65.0084 11.1924 65.7824 11.5496 66.616 11.7878C67.3304 11.9664 68.2235 11.7878 69.1165 11.7878C70.724 11.4305 72.3315 10.5375 73.4032 9.2872C74.6535 8.03692 75.3679 6.42941 75.5465 4.6433C75.5465 4.52422 75.6061 4.46469 75.7251 4.46469C75.8442 4.46469 75.9038 4.52422 75.9038 4.6433Z" fill="#F8560D"/>
<path d="M89.4782 8.21613C89.2996 6.43002 88.5851 4.82251 87.3348 3.57223C86.2632 2.32195 84.6557 1.6075 83.0482 1.25028C82.3337 1.25028 81.4407 1.07166 80.7262 1.25028C79.8927 1.36935 79.1187 1.66704 78.4043 2.14333C77.8089 2.61963 77.2731 3.215 76.7968 3.92945C76.4395 4.6439 76.2014 5.35834 76.0823 6.07278C75.9037 6.96584 76.0823 7.68029 76.4396 8.39474C76.6182 9.10919 77.154 9.82363 77.8685 10.1809C78.2257 10.419 78.5829 10.5976 78.9401 10.7167C79.0592 10.7167 79.2378 10.7762 79.4759 10.8953C79.7141 10.8953 79.8927 10.8953 80.0118 10.8953C80.9048 10.8953 81.6193 10.7167 82.1551 10.1809C83.4054 9.2878 83.7626 7.14445 82.5123 6.07278C82.2742 5.83464 81.917 5.65603 81.4407 5.53696C81.0835 5.41788 80.7262 5.41788 80.369 5.53696C79.6546 5.71557 79.1187 6.43002 79.1187 7.32307C79.1187 7.50169 79.1187 7.50168 78.9401 7.50168C78.821 7.50168 78.702 7.44215 78.5829 7.32307C78.5829 6.2514 79.1187 5.35834 80.1904 5.00112C81.262 4.64389 82.3337 4.82251 83.0482 5.53696C83.4054 5.89418 83.7031 6.31094 83.9412 6.78723C84.1794 7.26353 84.2389 7.73983 84.1199 8.21613C84.1199 9.2878 83.584 10.1809 82.8696 10.8953C82.1551 11.6098 81.0835 11.967 80.0118 11.967C79.7736 11.967 79.5355 11.967 79.2973 11.967C79.0592 11.967 78.821 11.9074 78.5829 11.7884C78.1066 11.6693 77.6303 11.4907 77.154 11.2525C76.4395 10.7167 75.7251 9.82364 75.3679 8.93058C75.1297 8.45428 74.9511 7.97798 74.832 7.50168C74.832 7.26353 74.832 7.02538 74.832 6.78723V6.43002V6.07278C74.9511 5.00111 75.2488 4.04852 75.7251 3.215C76.2014 2.38148 76.8563 1.66704 77.6898 1.07167C78.5233 0.595369 79.4164 0.238149 80.369 0C80.6072 0 80.8453 0 81.0834 0H81.7979C82.036 0 82.2742 0 82.5123 0H82.8696L83.2268 0.178609C85.1915 0.535832 86.799 1.6075 88.0493 3.03639C88.1684 3.27454 88.2874 3.45316 88.4065 3.57223L88.7637 4.28667L89.121 4.82251C89.24 5.06066 89.3591 5.29881 89.4782 5.53696C89.7164 6.37048 89.8354 7.26354 89.8354 8.21613C89.8354 8.33521 89.7759 8.39474 89.6568 8.39474C89.5377 8.39474 89.4782 8.33521 89.4782 8.21613Z" fill="#F8560D"/>
<path d="M103.945 4.6433C103.945 6.42941 103.23 8.39414 102.159 9.82304C100.908 11.0733 99.3009 12.145 97.3361 12.5022C96.5026 12.7404 95.6096 12.7999 94.657 12.6808C93.7044 12.5617 92.8113 12.2045 91.9778 11.6092C91.1443 11.0138 90.4894 10.2993 90.0131 9.46581C89.4177 8.63229 89.12 7.73923 89.12 6.78663L88.9414 6.42941V6.07218C88.9414 5.83403 89.0009 5.5959 89.12 5.35775C89.12 4.88145 89.2391 4.40515 89.4772 3.92885C89.8345 3.03579 90.5489 2.32134 91.2634 1.60689C91.7397 1.36874 92.2159 1.19014 92.6922 1.07107C92.9304 0.951991 93.1685 0.892457 93.4067 0.892457C93.6448 0.892457 93.883 0.892457 94.1211 0.892457C95.1928 0.713845 96.2645 1.24968 96.9789 1.78552C97.872 2.49996 98.4078 3.57163 98.4078 4.6433C98.4078 5.1196 98.3483 5.59589 98.2292 6.07218C97.9911 6.66755 97.6934 7.14386 97.3361 7.50108C96.8598 7.8583 96.3835 8.09646 95.9072 8.21553C95.3714 8.21553 94.8356 8.21553 94.2998 8.03692C93.2281 7.6797 92.6922 6.60803 92.8709 5.53636C92.8709 5.35774 92.8709 5.35775 93.0495 5.35775C93.1686 5.35775 93.2281 5.41728 93.2281 5.53636C93.2281 6.42941 93.9425 6.96525 94.4784 7.14386C94.8356 7.32247 95.1928 7.14386 95.55 7.14386C95.9073 7.02479 96.2049 6.84617 96.4431 6.60802C97.5148 5.71496 97.3361 3.75024 96.2645 2.85718C95.7286 2.32135 95.0142 1.96412 94.1211 1.96412C94.0021 1.96412 93.8234 1.96412 93.5853 1.96412C93.3471 2.0832 93.1686 2.14273 93.0495 2.14273C92.6923 2.26181 92.335 2.44042 91.9778 2.67857C91.2634 3.0358 90.7275 3.75024 90.5489 4.46469C90.1917 5.17914 90.0131 5.89357 90.1917 6.78663C90.1917 7.50108 90.4298 8.21553 90.9061 8.92998C91.2633 9.64443 91.7992 10.2398 92.5136 10.7161C93.2281 11.1924 93.9425 11.5496 94.657 11.7878C95.55 11.9664 96.4431 11.7878 97.1575 11.7878C98.9436 11.4305 100.373 10.5375 101.623 9.2872C102.694 8.03692 103.409 6.42941 103.588 4.6433C103.588 4.52422 103.647 4.46469 103.766 4.46469C103.885 4.46469 103.945 4.52422 103.945 4.6433Z" fill="#F8560D"/>
<path d="M117.7 8.21613C117.343 6.43002 116.628 4.82251 115.556 3.57223C114.306 2.32195 112.877 1.6075 111.27 1.25028C110.377 1.25028 109.484 1.07166 108.769 1.25028C107.936 1.36935 107.221 1.66704 106.626 2.14333C105.911 2.61963 105.376 3.215 105.018 3.92945C104.542 4.6439 104.244 5.35834 104.125 6.07278C104.125 6.96584 104.125 7.68029 104.482 8.39474C104.84 9.10919 105.376 9.82363 105.911 10.1809C106.269 10.419 106.626 10.5976 106.983 10.7167C107.221 10.7167 107.4 10.7762 107.519 10.8953C107.757 10.8953 107.995 10.8953 108.233 10.8953C108.948 10.8953 109.662 10.7167 110.377 10.1809C111.448 9.2878 111.806 7.14445 110.555 6.07278C110.317 5.83464 110.019 5.65603 109.662 5.53696C109.305 5.41788 108.948 5.41788 108.591 5.53696C107.876 5.71557 107.34 6.43002 107.34 7.32307C107.34 7.50169 107.162 7.50168 106.983 7.50168C106.864 7.50168 106.804 7.44215 106.804 7.32307C106.626 6.2514 107.34 5.35834 108.233 5.00112C109.305 4.64389 110.377 4.82251 111.091 5.53696C111.567 5.89418 111.865 6.31094 111.984 6.78723C112.222 7.26353 112.341 7.73983 112.341 8.21613C112.163 9.2878 111.627 10.1809 110.913 10.8953C110.198 11.6098 109.126 11.967 108.233 11.967C107.995 11.967 107.757 11.967 107.519 11.967C107.281 11.967 107.043 11.9074 106.804 11.7884C106.209 11.6693 105.733 11.4907 105.376 11.2525C104.482 10.7167 103.768 9.82364 103.411 8.93058C103.173 8.45428 103.054 7.97798 103.054 7.50168C102.935 7.26353 102.875 7.02538 102.875 6.78723V6.43002L103.054 6.07278C103.054 5.00111 103.351 4.04852 103.947 3.215C104.423 2.38148 105.078 1.66704 105.911 1.07167C106.745 0.595369 107.638 0.238149 108.591 0C108.829 0 109.067 0 109.305 0H110.019C110.258 0 110.496 0 110.734 0H111.091L111.448 0.178609C113.234 0.535832 115.021 1.6075 116.092 3.03639C116.33 3.27454 116.509 3.45316 116.628 3.57223L116.985 4.28667L117.343 4.82251C117.343 5.06066 117.402 5.29881 117.521 5.53696C117.878 6.37048 118.057 7.26354 118.057 8.21613C117.938 8.33521 117.878 8.39474 117.878 8.39474C117.759 8.39474 117.7 8.33521 117.7 8.21613Z" fill="#F8560D"/>
<path d="M131.808 4.6433C131.808 6.42941 131.094 8.39414 129.843 9.82304C128.772 11.0733 126.986 12.145 125.199 12.5022C124.247 12.7404 123.294 12.7999 122.342 12.6808C121.389 12.5617 120.496 12.2045 119.662 11.6092C118.948 11.0138 118.293 10.2993 117.698 9.46581C117.221 8.63229 116.924 7.73923 116.805 6.78663V6.42941V6.07218C116.805 5.83403 116.805 5.5959 116.805 5.35775C116.924 4.88145 117.043 4.40515 117.162 3.92885C117.698 3.03579 118.234 2.32134 119.127 1.60689C119.603 1.36874 120.079 1.19014 120.556 1.07107C120.794 0.951991 121.032 0.892457 121.27 0.892457C121.508 0.892457 121.746 0.892457 121.984 0.892457C123.056 0.713845 124.128 1.24968 124.842 1.78552C125.557 2.49996 126.092 3.57163 126.271 4.6433C126.271 5.1196 126.212 5.59589 126.093 6.07218C125.854 6.66755 125.497 7.14386 125.021 7.50108C124.664 7.8583 124.187 8.09646 123.592 8.21553C123.056 8.21553 122.52 8.21553 121.984 8.03692C121.091 7.6797 120.377 6.60803 120.556 5.53636C120.556 5.35774 120.734 5.35775 120.913 5.35775C121.032 5.35775 121.091 5.41728 121.091 5.53636C121.091 6.42941 121.627 6.96525 122.342 7.14386C122.699 7.32247 123.056 7.14386 123.413 7.14386C123.771 7.02479 124.068 6.84617 124.306 6.60802C125.378 5.71496 125.199 3.75024 123.949 2.85718C123.413 2.32135 122.699 1.96412 121.984 1.96412C121.746 1.96412 121.568 1.96412 121.449 1.96412C121.21 2.0832 121.032 2.14273 120.913 2.14273C120.436 2.26181 120.079 2.44042 119.841 2.67857C119.127 3.0358 118.591 3.75024 118.234 4.46469C117.876 5.17914 117.876 5.89357 117.876 6.78663C117.995 7.50108 118.234 8.21553 118.591 8.92998C119.067 9.64443 119.662 10.2398 120.377 10.7161C120.972 11.1924 121.687 11.5496 122.52 11.7878C123.413 11.9664 124.128 11.7878 125.021 11.7878C126.628 11.4305 128.236 10.5375 129.308 9.2872C130.558 8.03692 131.272 6.42941 131.451 4.6433C131.451 4.52422 131.51 4.46469 131.629 4.46469C131.749 4.46469 131.808 4.52422 131.808 4.6433Z" fill="#F8560D"/>
<path d="M145.384 8.21613C145.206 6.43002 144.491 4.82251 143.241 3.57223C142.169 2.32195 140.562 1.6075 138.954 1.25028C138.24 1.25028 137.347 1.07166 136.632 1.25028C135.799 1.36935 135.025 1.66704 134.311 2.14333C133.715 2.61963 133.179 3.215 132.703 3.92945C132.346 4.6439 132.108 5.35834 131.989 6.07278C131.989 6.96584 131.989 7.68029 132.346 8.39474C132.703 9.10919 133.06 9.82363 133.775 10.1809C134.132 10.419 134.489 10.5976 134.846 10.7167C135.085 10.7167 135.263 10.7762 135.382 10.8953C135.62 10.8953 135.799 10.8953 135.918 10.8953C136.811 10.8953 137.526 10.7167 138.061 10.1809C139.312 9.2878 139.669 7.14445 138.419 6.07278C138.18 5.83464 137.883 5.65603 137.526 5.53696C137.049 5.41788 136.632 5.41788 136.275 5.53696C135.561 5.71557 135.025 6.43002 135.025 7.32307C135.025 7.50169 135.025 7.50168 134.846 7.50168C134.727 7.50168 134.668 7.44215 134.668 7.32307C134.489 6.2514 135.204 5.35834 136.097 5.00112C137.168 4.64389 138.24 4.82251 138.954 5.53696C139.312 5.89418 139.609 6.31094 139.847 6.78723C140.086 7.26353 140.145 7.73983 140.026 8.21613C140.026 9.2878 139.49 10.1809 138.776 10.8953C138.061 11.6098 136.99 11.967 135.918 11.967C135.68 11.967 135.442 11.967 135.204 11.967C134.965 11.967 134.727 11.9074 134.489 11.7884C134.013 11.6693 133.596 11.4907 133.239 11.2525C132.346 10.7167 131.631 9.82364 131.274 8.93058C131.036 8.45428 130.857 7.97798 130.738 7.50168C130.738 7.26353 130.738 7.02538 130.738 6.78723V6.43002V6.07278C130.857 5.00111 131.155 4.04852 131.631 3.215C132.227 2.38148 132.882 1.66704 133.596 1.07167C134.43 0.595369 135.382 0.238149 136.454 0C136.692 0 136.93 0 137.168 0H137.883C138.121 0 138.359 0 138.597 0H138.954L139.312 0.178609C141.098 0.535832 142.705 1.6075 143.956 3.03639C144.075 3.27454 144.194 3.45316 144.313 3.57223L144.849 4.28667L145.027 4.82251C145.146 5.06066 145.265 5.29881 145.384 5.53696C145.623 6.37048 145.742 7.26354 145.742 8.21613C145.742 8.33521 145.682 8.39474 145.563 8.39474C145.563 8.39474 145.504 8.33521 145.384 8.21613Z" fill="#F8560D"/>
<path d="M205.755 7.32343L146.099 7.85926C145.385 7.85926 145.027 7.50204 145.027 6.78759C145.027 6.25175 145.385 5.89453 145.92 5.89453C146.039 5.89453 146.099 5.89453 146.099 5.89453L205.755 6.43037C205.934 6.43037 206.113 6.60898 206.113 6.78759C206.113 7.14481 205.934 7.32343 205.755 7.32343Z" fill="#F8560D"/>
<path d="M1.24394 6.43037L61.0788 5.89453C61.6147 5.89453 61.9719 6.25175 61.9719 6.78759C61.9719 7.50204 61.6147 7.85926 61.0788 7.85926L1.24394 7.32343C1.06532 7.32343 0.886719 7.14481 0.886719 6.78759C0.886719 6.60898 1.06532 6.43037 1.24394 6.43037Z" fill="#F8560D"/>
<path d="M81.2612 7.14374C81.2612 7.85819 80.7254 8.39402 80.0109 8.39402C79.2965 8.39402 78.582 7.85819 78.582 7.14374C78.582 6.4293 79.2965 5.71484 80.0109 5.71484C80.7254 5.71484 81.2612 6.4293 81.2612 7.14374Z" fill="#F8560D"/>
<path d="M95.3725 5.71512C95.3725 6.42957 94.8367 7.14402 94.1223 7.14402C93.4078 7.14402 92.6934 6.42957 92.6934 5.71512C92.6934 5.00067 93.4078 4.46484 94.1223 4.46484C94.8367 4.46484 95.3725 5.00067 95.3725 5.71512Z" fill="#F8560D"/>
<path d="M109.303 7.14482C109.303 7.85927 108.767 8.57371 108.053 8.57371C107.339 8.57371 106.803 7.85927 106.803 7.14482C106.803 6.43037 107.339 5.89453 108.053 5.89453C108.767 5.89453 109.303 6.43037 109.303 7.14482Z" fill="#F8560D"/>
<path d="M123.236 5.71512C123.236 6.42957 122.521 6.9654 121.807 6.9654C121.092 6.9654 120.557 6.42957 120.557 5.71512C120.557 5.00067 121.092 4.46484 121.807 4.46484C122.521 4.46484 123.236 5.00067 123.236 5.71512Z" fill="#F8560D"/>
<path d="M137.167 7.14482C137.167 7.85927 136.632 8.57371 135.917 8.57371C135.203 8.57371 134.488 7.85927 134.488 7.14482C134.488 6.43037 135.203 5.89453 135.917 5.89453C136.632 5.89453 137.167 6.43037 137.167 7.14482Z" fill="#F8560D"/>
<path d="M67.3315 5.71601C67.3315 6.43045 66.6171 6.96628 65.9026 6.96628C65.1882 6.96628 64.6523 6.43045 64.6523 5.71601C64.6523 5.00156 65.1882 4.28711 65.9026 4.28711C66.6171 4.28711 67.3315 5.00156 67.3315 5.71601Z" fill="#F8560D"/>
</svg>
