<svg width="24" height="24" viewBox="0 0 24 24" fill="none" xmlns="http://www.w3.org/2000/svg">
<path d="M23.4394 8.91424C23.3671 8.70137 23.2341 8.51432 23.0567 8.37618C22.8793 8.23805 22.6653 8.15488 22.4412 8.13695L15.885 7.61607L13.0479 1.33675C12.9576 1.13451 12.8106 0.962729 12.6248 0.842151C12.439 0.721573 12.2222 0.657348 12.0007 0.657227C11.7791 0.657105 11.5623 0.721092 11.3763 0.841466C11.1903 0.961839 11.0432 1.13345 10.9526 1.3356L8.11556 7.61607L1.55937 8.13695C1.33909 8.1544 1.12851 8.23493 0.952804 8.36891C0.777103 8.50289 0.643726 8.68464 0.568631 8.89243C0.493536 9.10022 0.479902 9.32524 0.52936 9.54057C0.578819 9.7559 0.689275 9.95243 0.847515 10.1066L5.69249 14.8291L3.97898 22.2479C3.92695 22.4724 3.94363 22.7075 4.02685 22.9224C4.11006 23.1374 4.25598 23.3224 4.44566 23.4534C4.63534 23.5844 4.86003 23.6554 5.09056 23.6572C5.3211 23.6589 5.54684 23.5914 5.73849 23.4633L12.0003 19.2893L18.2621 23.4633C18.458 23.5933 18.689 23.6603 18.924 23.6551C19.1591 23.6499 19.387 23.5729 19.577 23.4344C19.767 23.2959 19.91 23.1026 19.9868 22.8804C20.0636 22.6582 20.0705 22.4178 20.0066 22.1915L17.9033 14.8325L23.1197 10.1388C23.4612 9.83067 23.5866 9.35004 23.4394 8.91424Z" fill="#FCD400"/>
</svg>
