<svg width="13" height="13" viewBox="0 0 13 13" fill="none" xmlns="http://www.w3.org/2000/svg">
<path d="M12.4683 4.54922C12.4306 4.43815 12.3612 4.34056 12.2686 4.26849C12.1761 4.19642 12.0644 4.15303 11.9475 4.14367L8.52686 3.87191L7.04665 0.595744C6.99951 0.490226 6.92284 0.400603 6.82588 0.337693C6.72892 0.274783 6.61583 0.241274 6.50025 0.241211C6.38466 0.241148 6.27153 0.274532 6.1745 0.337336C6.07748 0.400139 6.0007 0.489678 5.95345 0.595145L4.47324 3.87191L1.05262 4.14367C0.937692 4.15278 0.82782 4.19479 0.73615 4.2647C0.64448 4.3346 0.574892 4.42943 0.535712 4.53784C0.496532 4.64625 0.489418 4.76365 0.515223 4.876C0.541027 4.98835 0.598657 5.09088 0.681217 5.17134L3.20903 7.63521L2.31503 11.5059C2.28788 11.6231 2.29658 11.7457 2.34 11.8578C2.38342 11.97 2.45955 12.0665 2.55851 12.1349C2.65747 12.2032 2.7747 12.2403 2.89498 12.2412C3.01526 12.2421 3.13304 12.2069 3.23303 12.14L6.50005 9.9623L9.76707 12.14C9.86927 12.2079 9.9898 12.2428 10.1125 12.2401C10.2351 12.2374 10.354 12.1972 10.4531 12.125C10.5522 12.0527 10.6269 11.9518 10.6669 11.8359C10.707 11.72 10.7106 11.5945 10.6773 11.4765L9.57987 7.63701L12.3015 5.18814C12.4797 5.02736 12.5451 4.77659 12.4683 4.54922Z" fill="#FCD400"/>
</svg>
