<svg width="24" height="24" viewBox="0 0 24 24" fill="none" xmlns="http://www.w3.org/2000/svg">
<path d="M11.99 4.47898C6.31775 4.47898 1.71875 7.53673 1.71875 11.3085C1.71875 13.4662 3.2285 15.3885 5.579 16.6395C5.2445 17.7495 4.577 18.9772 3.287 20.064C3.287 20.064 6.299 19.8645 8.426 17.7067C8.54825 17.7367 8.675 17.7592 8.79875 17.7862C8.67821 17.438 8.61563 17.0724 8.6135 16.704C8.6135 14.1592 11.4455 12.1665 15.0635 12.1665C17.6607 12.1665 19.847 13.1985 20.876 14.721C21.752 13.716 22.2612 12.5512 22.2612 11.3062C22.2612 7.53523 17.6622 4.47748 11.99 4.47748V4.47898ZM20.7612 16.7055C20.7612 14.613 18.2112 12.9157 15.0612 12.9157C11.915 12.9157 9.36275 14.6137 9.36275 16.7062C9.36275 18.7987 11.915 20.496 15.0627 20.496C15.7587 20.496 16.4225 20.409 17.0398 20.256C18.2195 21.4545 19.8897 21.5647 19.8897 21.5647C19.175 20.9617 18.8052 20.28 18.6192 19.6642C19.9227 18.9705 20.7612 17.904 20.7612 16.7062V16.7055Z" fill="white"/>
</svg>
