<svg width="57" height="56" viewBox="0 0 57 56" fill="none" xmlns="http://www.w3.org/2000/svg">
<circle cx="28.5" cy="28" r="28" fill="url(#paint0_linear_220_8167)"/>
<g filter="url(#filter0_d_220_8167)">
<circle cx="28.4999" cy="27.9999" r="24.1145" stroke="white" stroke-opacity="0.7" stroke-width="0.735528"/>
</g>
<path d="M40.943 21.8744C40.943 22.6368 40.6438 23.3729 40.0998 23.8987L27.4529 36.1499C26.8818 36.6757 26.1202 36.9912 25.3315 36.9912C24.5428 36.9912 23.7813 36.6757 23.2373 36.1499L16.9003 30.0243C16.3563 29.4985 16.0571 28.7624 16.0571 28C16.0571 27.2376 16.3835 26.5277 16.9275 25.9756C17.4986 25.4498 18.2329 25.1607 19.0217 25.1344C19.8104 25.1344 20.5447 25.4236 21.1159 25.9494L25.3315 30.0243L35.8842 19.8238C36.4553 19.298 37.1897 19.0088 37.9784 19.0088C38.7671 19.0351 39.5015 19.3243 40.0726 19.8764C40.6166 20.4022 40.943 21.112 40.943 21.8744Z" fill="white"/>
<defs>
<filter id="filter0_d_220_8167" x="2.54652" y="3.14981" width="51.9065" height="51.9067" filterUnits="userSpaceOnUse" color-interpolation-filters="sRGB">
<feFlood flood-opacity="0" result="BackgroundImageFix"/>
<feColorMatrix in="SourceAlpha" type="matrix" values="0 0 0 0 0 0 0 0 0 0 0 0 0 0 0 0 0 0 127 0" result="hardAlpha"/>
<feOffset dy="1.10329"/>
<feGaussianBlur stdDeviation="0.735528"/>
<feColorMatrix type="matrix" values="0 0 0 0 0 0 0 0 0 0 0 0 0 0 0 0 0 0 0.12 0"/>
<feBlend mode="normal" in2="BackgroundImageFix" result="effect1_dropShadow_220_8167"/>
<feBlend mode="normal" in="SourceGraphic" in2="effect1_dropShadow_220_8167" result="shape"/>
</filter>
<linearGradient id="paint0_linear_220_8167" x1="28.5" y1="0" x2="28.5" y2="56" gradientUnits="userSpaceOnUse">
<stop stop-color="#09E358"/>
<stop offset="1" stop-color="#00C045" stop-opacity="0.89"/>
</linearGradient>
</defs>
</svg>
