<svg width="34" height="34" viewBox="0 0 34 34" fill="none" xmlns="http://www.w3.org/2000/svg">
<path opacity="0.1" fill-rule="evenodd" clip-rule="evenodd" d="M0.628662 16.5285C0.628662 7.40006 8.02873 0 17.1572 0C26.2856 0 33.6857 7.40006 33.6857 16.5285C33.6857 25.6569 26.2856 33.057 17.1572 33.057C8.02873 33.057 0.628662 25.6569 0.628662 16.5285Z" fill="#797171"/>
<g clip-path="url(#clip0_12_4146)">
<path d="M24.7785 12.5184C24.7899 12.6728 24.7899 12.8272 24.7899 12.9816C24.7899 17.6912 21.078 23.1176 14.2937 23.1176C12.2035 23.1176 10.2619 22.5331 8.62866 21.5184C8.92563 21.5515 9.21113 21.5625 9.51952 21.5625C11.2441 21.5625 12.8317 21 14.0995 20.0405C12.4777 20.0074 11.1185 18.9816 10.6502 17.5699C10.8787 17.6029 11.1071 17.625 11.347 17.625C11.6782 17.625 12.0094 17.5809 12.3178 17.5037C10.6274 17.1728 9.3596 15.739 9.3596 14.0073V13.9632C9.8507 14.228 10.4218 14.3934 11.0271 14.4154C10.0334 13.7757 9.38245 12.6838 9.38245 11.4485C9.38245 10.7868 9.56516 10.1801 9.88498 9.65072C11.701 11.8125 14.4307 13.2242 17.4916 13.3787C17.4345 13.114 17.4002 12.8382 17.4002 12.5625C17.4002 10.5992 19.0449 9 21.0893 9C22.1515 9 23.1109 9.43015 23.7848 10.125C24.6185 9.9706 25.418 9.67279 26.1261 9.26471C25.852 10.0919 25.2695 10.7868 24.5043 11.2279C25.2467 11.1508 25.9662 10.9522 26.6287 10.6765C26.1262 11.3823 25.498 12.011 24.7785 12.5184Z" fill="white" fill-opacity="0.8"/>
</g>
<defs>
<clipPath id="clip0_12_4146">
<rect width="18" height="15" fill="white" transform="translate(8.62866 9)"/>
</clipPath>
</defs>
</svg>
